<svg width="27" height="32" viewBox="0 0 27 32" fill="none" xmlns="http://www.w3.org/2000/svg">
<path fill-rule="evenodd" clip-rule="evenodd" d="M13.0348 0.468629C13.6551 1.09347 13.6551 2.10653 13.0348 2.73137L10.9814 4.8H13.5C20.8889 4.8 27 10.9563 27 18.4C27 25.8437 20.8889 32 13.5 32C6.11108 32 0 25.8437 0 18.4C0 17.5163 0.711077 16.8 1.58824 16.8C2.46539 16.8 3.17647 17.5163 3.17647 18.4C3.17647 24.0763 7.86539 28.8 13.5 28.8C19.1346 28.8 23.8235 24.0763 23.8235 18.4C23.8235 12.7237 19.1346 8 13.5 8H10.9814L13.0348 10.0686C13.6551 10.6935 13.6551 11.7065 13.0348 12.3314C12.4146 12.9562 11.409 12.9562 10.7887 12.3314L6.02401 7.53137C5.40376 6.90653 5.40376 5.89347 6.02401 5.26863L10.7887 0.468629C11.409 -0.15621 12.4146 -0.15621 13.0348 0.468629Z" fill="white"/>
</svg>
