<svg width="165" height="562" viewBox="0 0 165 562" fill="none" xmlns="http://www.w3.org/2000/svg">
<path fill-rule="evenodd" clip-rule="evenodd" d="M84.3803 0.020951C85.2262 -0.141428 86.0089 0.657721 86.1285 1.8059C93.6228 73.7342 120.445 119.958 132.722 133.919C133.377 134.663 133.463 135.988 132.914 136.877C132.365 137.765 131.39 137.882 130.735 137.138C117.881 122.521 90.6682 75.365 83.0653 2.39393C82.9456 1.24575 83.5344 0.18333 84.3803 0.020951ZM164.413 88.1011C165.083 88.8205 165.196 90.1409 164.666 91.0505C156.358 105.309 152.947 123.971 152.297 131.431C152.196 132.583 151.427 133.406 150.579 133.27C149.73 133.133 149.124 132.089 149.225 130.938C149.918 122.99 153.465 103.505 162.24 88.4455C162.77 87.5359 163.743 87.3818 164.413 88.1011ZM0.762095 99.6095C1.49822 99.021 2.44643 99.3539 2.87999 100.353C29.2899 161.218 63.3488 185.957 90.7515 195.538C104.471 200.336 116.545 201.339 125.18 201.145C129.497 201.048 136.951 200.651 139.318 200.281C140.502 200.096 141.413 199.917 142.024 199.786C142.329 199.721 142.56 199.667 142.711 199.631C142.787 199.612 142.844 199.598 142.88 199.589L142.905 199.583L142.919 199.579L142.923 199.578L142.927 199.577L142.928 199.577L142.928 199.578C142.932 199.594 142.957 199.769 143.226 201.637C143.525 203.697 143.522 203.698 143.522 203.698L143.519 203.699L143.503 203.703L143.441 203.72C143.384 203.735 143.3 203.758 143.187 203.789C142.963 203.851 142.628 203.944 142.191 204.069C141.316 204.32 140.031 204.697 138.399 205.205C135.133 206.22 126.476 207.753 120.919 209.822C109.8 213.964 95.1104 220.245 80.7774 228.807C66.4217 237.383 52.5414 248.179 42.9465 261.288C33.3803 274.357 31.2014 289.521 33.8008 307.06C36.4276 324.784 41.97 340.262 53.396 352.91C64.5041 365.206 78.2322 374.705 91.5501 380.875C102.303 359.65 117.365 355.893 128.456 359.742C134.061 361.688 138.77 365.62 141.331 370.389C142.621 372.79 143.409 375.492 143.39 378.296C143.371 381.138 142.522 383.856 140.841 386.225C138.927 388.922 136.15 390.726 132.876 391.827C129.589 392.933 125.685 393.368 121.381 393.208C113.08 392.899 103.115 390.369 92.8375 385.878C82.2972 408.969 77.0763 453.297 86.5 530.273C86.64 531.417 85.492 531.651 84.6494 531.896C83.3623 532.268 81.64 531.417 81.5 530.273C72.148 453.883 78.9354 409.108 89.8278 384.511C76.458 378.206 62.6833 368.609 51.4408 356.164C39.6835 343.149 30.5841 326.89 27.7678 307.888C24.8992 288.533 30.7291 272.021 40.7518 258.328C50.7457 244.674 79.5311 224.963 79.5311 224.963C79.5311 224.963 99.8965 209.946 111.1 205.773C111.489 205.628 111.873 205.486 112.252 205.347C103.833 205.173 102.026 203.817 89.9797 199.605C61.8622 189.773 27.0816 164.403 0.214244 102.484C-0.219312 101.485 0.025969 100.198 0.762095 99.6095ZM97.5 379.152C97.5 379.152 113.743 388.723 121.466 389.01C125.585 389.163 129.194 388.739 132.132 387.751C135.084 386.759 135.613 383.312 135.613 383.312C135.613 383.312 136.431 379.965 136.5 377.803C136.571 375.561 136.768 372.497 135.613 369.707C133.89 365.544 132.811 365.588 127.69 363.811C117.942 360.427 97.5 379.152 97.5 379.152ZM143.226 201.637L143.525 203.697C144.363 203.473 144.908 202.37 144.744 201.233C144.58 200.095 143.768 199.354 142.93 199.576L143.226 201.637ZM70.0724 393.684C70.5406 394.654 70.3408 395.955 69.6262 396.591C64.5907 401.069 61.1756 407.717 59.0076 413.353C57.9289 416.158 57.1729 418.676 56.6879 420.487C56.4456 421.392 56.2717 422.117 56.1595 422.611C56.1034 422.858 56.0628 423.046 56.0368 423.17C56.0302 423.201 56.0246 423.228 56.0199 423.251L56.0087 423.306L56.0027 423.336L56.002 423.34C55.7838 424.46 54.1117 424.834 54.1117 424.834C54.1117 424.834 51.2676 422.849 51.4855 421.728L54.5063 422.804C53.0106 422.269 51.4858 421.727 51.4858 421.727L51.4871 421.72L51.49 421.705L51.5 421.655C51.5085 421.613 51.5206 421.554 51.5365 421.478C51.5683 421.327 51.6152 421.109 51.6782 420.832C51.804 420.279 51.994 419.487 52.2551 418.512C52.777 416.563 54.3563 410.997 56.5 406.813C59.8987 400.178 62.2836 398.1 67.9308 393.078C68.6454 392.443 69.6042 392.714 70.0724 393.684ZM96.5 509.359C97.3393 509.575 99.5 510.034 99.5 510.034L90.2813 559.599C90.1643 560.436 89.615 561.811 89 561.982C88.3849 562.152 87.8261 561.084 87.4766 560.376L64.5 515.431L66.5 514.082L68.5 512.733L87.9453 553.783L94.2392 508.755C94.2392 508.755 95.6606 509.143 96.5 509.359Z" fill="url(#paint0_linear_127_1190)"/>
<defs>
<linearGradient id="paint0_linear_127_1190" x1="293.906" y1="499.717" x2="474.062" y2="142.066" gradientUnits="userSpaceOnUse">
<stop stop-color="#333333"/>
<stop offset="1" stop-color="#646366" stop-opacity="0"/>
</linearGradient>
</defs>
</svg>
