<svg width="659" height="396" viewBox="0 0 659 396" fill="none" xmlns="http://www.w3.org/2000/svg">
<path d="M363.442 62.4383L361.297 63.721L363.862 68.0127L366.008 66.7299L363.442 62.4383ZM654.783 205.026L652.295 204.781L652.295 204.781L654.783 205.026ZM157.132 165.211L154.637 165.373L154.637 165.373L157.132 165.211ZM31.9987 22.3198L29.5163 22.6155L30.1077 27.5804L32.5902 27.2847L31.9987 22.3198ZM35.746 46.6076L38.0354 47.6119L40.044 43.0331L37.7546 42.0288L35.746 46.6076ZM2.92502 29.4796L1.29356 27.5853C0.642851 28.1457 0.325333 29.0009 0.452641 29.8502C0.579949 30.6995 1.13426 31.424 1.9207 31.769L2.92502 29.4796ZM34.1387 5.89625L36.033 4.26479L32.7701 0.476203L30.8758 2.10766L34.1387 5.89625ZM38.3528 26.9966L40.8527 26.9687L40.7967 21.969L38.2969 21.9969L38.3528 26.9966ZM52.8454 22.8312L50.3638 22.5284L49.7582 27.4916L52.2398 27.7943L52.8454 22.8312ZM64.0202 29.8709L66.4557 30.4352L67.5843 25.5643L65.1489 25L64.0202 29.8709ZM79.0694 29.1676L76.7253 28.2985L74.9871 32.9866L77.3312 33.8558L79.0694 29.1676ZM88.2483 38.6235L90.4782 39.7538L92.7388 35.294L90.5089 34.1637L88.2483 38.6235ZM103.033 41.6279L100.978 40.2036L98.1299 44.3128L100.184 45.7371L103.033 41.6279ZM109.535 53.0681L111.408 54.723L114.718 50.9752L112.844 49.3204L109.535 53.0681ZM123.082 59.656L121.443 57.7684L117.667 61.0466L119.306 62.9343L123.082 59.656ZM126.659 72.3866L128.088 74.4379L132.19 71.5796L130.761 69.5284L126.659 72.3866ZM138.332 81.8381L137.142 79.6399L132.745 82.021L133.936 84.2193L138.332 81.8381ZM139.188 95.0262L140.185 97.3189L144.77 95.3253L143.773 93.0326L139.188 95.0262ZM148.919 106.498L148.128 104.126L143.385 105.708L144.176 108.08L148.919 106.498ZM147.59 119.6L148.223 122.019L153.06 120.754L152.428 118.336L147.59 119.6ZM155.584 132.375L155.116 129.919L150.204 130.854L150.672 133.31L155.584 132.375ZM152.62 145.217L152.962 147.693L157.915 147.009L157.573 144.532L152.62 145.217ZM159.159 158.803L158.946 156.312L153.964 156.737L154.177 159.228L159.159 158.803ZM155.082 171.486L155.283 173.978L160.267 173.576L160.066 171.084L155.082 171.486ZM161.437 184.803L161.14 182.321L156.175 182.915L156.473 185.398L161.437 184.803ZM158.056 196.963L158.438 199.434L163.38 198.67L162.998 196.199L158.056 196.963ZM165.424 209.905L164.933 207.454L160.031 208.436L160.522 210.887L165.424 209.905ZM163.055 222.379L163.642 224.809L168.502 223.636L167.916 221.206L163.055 222.379ZM171.48 234.533L170.774 232.135L165.977 233.547L166.684 235.946L171.48 234.533ZM170.282 247.235L171.094 249.6L175.823 247.975L175.01 245.611L170.282 247.235ZM179.821 258.456L178.879 256.14L174.248 258.024L175.19 260.34L179.821 258.456ZM179.939 271.237L180.995 273.503L185.527 271.391L184.471 269.125L179.939 271.237ZM190.625 281.351L189.432 279.154L185.038 281.538L186.23 283.735L190.625 281.351ZM192.181 294.032L193.49 296.161L197.75 293.542L196.44 291.413L192.181 294.032ZM203.986 302.828L202.539 300.789L198.462 303.683L199.909 305.722L203.986 302.828ZM207.061 315.211L208.623 317.163L212.527 314.04L210.966 312.087L207.061 315.211ZM219.88 322.476L218.187 320.636L214.508 324.022L216.2 325.862L219.88 322.476ZM224.53 334.394L226.329 336.13L229.802 332.533L228.003 330.797L224.53 334.394ZM238.146 339.927L236.231 338.32L233.017 342.15L234.932 343.757L238.146 339.927ZM244.32 351.171L246.327 352.662L249.308 348.648L247.302 347.157L244.32 351.171ZM258.505 354.901L256.402 353.55L253.7 357.757L255.803 359.108L258.505 354.901ZM266.058 365.287L268.235 366.516L270.693 362.161L268.516 360.933L266.058 365.287ZM280.597 367.241L278.345 366.156L276.175 370.66L278.427 371.745L280.597 367.241ZM289.339 376.643L291.646 377.606L293.571 372.991L291.263 372.029L289.339 376.643ZM304.011 376.894L301.649 376.073L300.008 380.796L302.369 381.617L304.011 376.894ZM313.756 385.256L316.156 385.958L317.559 381.158L315.16 380.457L313.756 385.256ZM328.366 383.916L325.931 383.35L324.799 388.22L327.234 388.786L328.366 383.916ZM338.943 391.22L341.402 391.672L342.306 386.755L339.847 386.303L338.943 391.22ZM353.337 388.421L350.858 388.097L350.21 393.055L352.689 393.379L353.337 388.421ZM364.565 394.671L367.056 394.888L367.49 389.907L364.999 389.69L364.565 394.671ZM378.646 390.546L376.148 390.449L375.955 395.446L378.453 395.542L378.646 390.546ZM390.382 395.762L392.882 395.758L392.874 390.758L390.374 390.762L390.382 395.762ZM404.061 390.426L401.564 390.544L401.8 395.538L404.297 395.42L404.061 390.426ZM416.191 394.63L418.682 394.417L418.256 389.436L415.765 389.649L416.191 394.63ZM429.384 388.183L426.905 388.505L427.548 393.463L430.027 393.142L429.384 388.183ZM441.817 391.392L444.283 390.98L443.459 386.049L440.993 386.461L441.817 391.392ZM454.452 383.916L452.006 384.433L453.038 389.325L455.485 388.808L454.452 383.916ZM467.102 386.136L469.528 385.532L468.319 380.68L465.893 381.285L467.102 386.136ZM479.115 377.694L476.717 378.4L478.128 383.197L480.527 382.491L479.115 377.694ZM491.893 378.922L494.264 378.13L492.68 373.387L490.309 374.179L491.893 378.922ZM503.215 369.561L500.879 370.453L502.664 375.124L505 374.231L503.215 369.561ZM516.035 369.779L518.336 368.801L516.379 364.199L514.078 365.178L516.035 369.779ZM526.578 359.534L524.323 360.613L526.481 365.123L528.736 364.044L526.578 359.534ZM539.387 358.693L541.598 357.527L539.266 353.104L537.055 354.27L539.387 358.693ZM549.007 347.609L546.852 348.877L549.388 353.187L551.543 351.919L549.007 347.609ZM561.714 345.645L563.814 344.289L561.1 340.089L559 341.446L561.714 345.645ZM570.266 333.76L568.237 335.221L571.159 339.279L573.188 337.818L570.266 333.76ZM582.751 330.596L584.711 329.044L581.607 325.124L579.647 326.676L582.751 330.596ZM590.11 317.909L588.239 319.568L591.558 323.309L593.428 321.649L590.11 317.909ZM602.164 313.499L603.948 311.747L600.445 308.179L598.661 309.931L602.164 313.499ZM608.108 300.063L606.437 301.923L610.156 305.264L611.827 303.405L608.108 300.063ZM619.553 294.303L621.115 292.351L617.212 289.226L615.649 291.178L619.553 294.303ZM623.797 280.24L622.376 282.297L626.489 285.139L627.91 283.082L623.797 280.24ZM634.408 273.005L635.695 270.862L631.407 268.289L630.121 270.433L634.408 273.005ZM636.648 258.523L635.535 260.761L640.012 262.988L641.125 260.749L636.648 258.523ZM646.091 249.811L647.042 247.499L642.418 245.596L641.467 247.908L646.091 249.811ZM646.087 235.152L645.338 237.537L650.109 239.034L650.857 236.648L646.087 235.152ZM654.02 225.039L654.584 222.604L649.713 221.475L649.149 223.911L654.02 225.039ZM651.607 210.594L651.265 213.071L656.218 213.755L656.56 211.279L651.607 210.594ZM657.796 199.088L657.974 196.595L652.987 196.238L652.809 198.732L657.796 199.088ZM653.373 184.604L653.352 187.104L658.352 187.146L658.373 184.646L653.373 184.604ZM658.135 172.255L658.018 169.758L653.024 169.992L653.141 172.489L658.135 172.255ZM652.017 158.407L652.298 160.891L657.267 160.328L656.985 157.844L652.017 158.407ZM655.231 145.569L654.805 143.105L649.878 143.958L650.305 146.421L655.231 145.569ZM647.408 132.606L648.008 135.032L652.862 133.831L652.261 131.405L647.408 132.606ZM648.898 119.452L648.143 117.069L643.376 118.578L644.131 120.961L648.898 119.452ZM639.352 107.691L640.292 110.007L644.925 108.127L643.985 105.811L639.352 107.691ZM638.904 94.4632L637.801 92.2199L633.314 94.4267L634.418 96.6701L638.904 94.4632ZM627.66 84.3298L628.958 86.4665L633.231 83.8707L631.933 81.734L627.66 84.3298ZM625.048 71.359L623.582 69.334L619.532 72.2661L620.998 74.2911L625.048 71.359ZM612.214 63.338L613.874 65.2071L617.612 61.8866L615.952 60.0175L612.214 63.338ZM607.26 51.0687L605.439 49.3558L602.013 52.9977L603.834 54.7107L607.26 51.0687ZM593.123 45.6721L595.118 47.1778L598.13 43.1864L596.134 41.6807L593.123 45.6721ZM585.823 34.6422L583.693 33.3324L581.074 37.5914L583.203 38.9011L585.823 34.6422ZM570.871 32.2312L573.133 33.2968L575.264 28.7738L573.003 27.7082L570.871 32.2312ZM561.467 22.9204L559.116 22.0706L557.416 26.7728L559.768 27.6226L561.467 22.9204ZM546.348 23.5601L548.775 24.1592L549.973 19.3048L547.546 18.7058L546.348 23.5601ZM535.328 16.2416L532.859 15.8509L532.078 20.7895L534.547 21.1802L535.328 16.2416ZM520.592 19.6374L523.087 19.7988L523.41 14.8093L520.915 14.6478L520.592 19.6374ZM508.474 14.304L505.974 14.325L506.016 19.3248L508.516 19.3038L508.474 14.304ZM494.441 19.9784L496.932 19.7635L496.502 14.782L494.011 14.9969L494.441 19.9784ZM481.646 16.4488L479.173 16.8144L479.904 21.7607L482.377 21.395L481.646 16.4488ZM468.472 23.9159L470.917 23.3929L469.871 18.5035L467.426 19.0265L468.472 23.9159ZM455.461 21.9014L453.045 22.5443L454.331 27.3761L456.747 26.7332L455.461 21.9014ZM443.186 30.7326L445.565 29.9639L444.027 25.2062L441.649 25.9749L443.186 30.7326ZM429.959 30.0222L427.613 30.8876L429.344 35.5784L431.69 34.7131L429.959 30.0222ZM418.428 39.9428L420.734 38.976L418.8 34.365L416.495 35.3318L418.428 39.9428ZM405.267 40.2672L402.996 41.3112L405.084 45.8544L407.355 44.8104L405.267 40.2672ZM394.585 50.9659L396.818 49.8404L394.567 45.3757L392.334 46.5012L394.585 50.9659ZM381.306 52.2646L379.107 53.4538L381.485 57.8518L383.684 56.6626L381.306 52.2646ZM371.368 63.5712L373.53 62.3156L371.018 57.992L368.857 59.2476L371.368 63.5712ZM27.4625 5.04738L25.5682 6.67884L28.8311 10.4674L30.7254 8.83597L27.4625 5.04738ZM22.7609 15.6953L24.6552 14.0639L21.3923 10.2753L19.498 11.9067L22.7609 15.6953ZM12.6714 17.7862L10.7771 19.4177L14.04 23.2062L15.9343 21.5748L12.6714 17.7862ZM7.96981 28.4342L9.86411 26.8027L6.6012 23.0141L4.7069 24.6456L7.96981 28.4342ZM9.72653 35.1933L12.0159 36.1976L14.0246 31.6188L11.7352 30.6145L9.72653 35.1933ZM29.9488 38.6045L27.6594 37.6002L25.6507 42.179L27.9401 43.1833L29.9488 38.6045ZM32.2945 24.8022C32.5902 27.2847 32.59 27.2847 32.5898 27.2847C32.5897 27.2847 32.5895 27.2848 32.5894 27.2848C32.5892 27.2848 32.589 27.2848 32.5888 27.2848C32.5885 27.2849 32.5883 27.2849 32.5882 27.2849C32.5881 27.2849 32.5885 27.2849 32.5894 27.2848C32.5913 27.2846 32.5953 27.2841 32.6014 27.2834C32.6137 27.282 32.6343 27.2797 32.6632 27.2766C32.7211 27.2704 32.812 27.261 32.935 27.2493C33.1809 27.226 33.5547 27.1936 34.0472 27.1596C35.0323 27.0917 36.4918 27.0174 38.3528 26.9966L38.2969 21.9969C36.3325 22.0189 34.7767 22.0974 33.7031 22.1715C33.1662 22.2085 32.7496 22.2445 32.4625 22.2717C32.319 22.2853 32.2078 22.2968 32.1302 22.3051C32.0913 22.3093 32.0608 22.3127 32.0389 22.3151C32.0279 22.3164 32.0191 22.3174 32.0124 22.3182C32.009 22.3186 32.0062 22.3189 32.0039 22.3192C32.0028 22.3193 32.0018 22.3194 32.0009 22.3195C32.0005 22.3196 32.0001 22.3196 31.9997 22.3197C31.9996 22.3197 31.9993 22.3197 31.9992 22.3197C31.999 22.3198 31.9987 22.3198 32.2945 24.8022ZM52.2398 27.7943C55.844 28.2341 59.8089 28.8951 64.0202 29.8709L65.1489 25C60.7496 23.9806 56.6091 23.2904 52.8454 22.8312L52.2398 27.7943ZM77.3312 33.8558C80.909 35.1824 84.5659 36.7569 88.2483 38.6235L90.5089 34.1637C86.6472 32.2062 82.8151 30.5565 79.0694 29.1676L77.3312 33.8558ZM100.184 45.7371C103.335 47.921 106.463 50.3552 109.535 53.0681L112.844 49.3204C109.622 46.4748 106.34 43.9203 103.033 41.6279L100.184 45.7371ZM119.306 62.9343C121.833 65.8438 124.291 68.9883 126.659 72.3866L130.761 69.5284C128.293 65.9848 125.725 62.7001 123.082 59.656L119.306 62.9343ZM133.936 84.2193C135.775 87.6152 137.53 91.2134 139.188 95.0262L143.773 93.0326C142.06 89.0908 140.241 85.3631 138.332 81.8381L133.936 84.2193ZM144.176 108.08C145.4 111.75 146.541 115.588 147.59 119.6L152.428 118.336C151.352 114.22 150.179 110.276 148.919 106.498L144.176 108.08ZM150.672 133.31C151.401 137.139 152.052 141.106 152.62 145.217L157.573 144.532C156.994 140.34 156.329 136.29 155.584 132.375L150.672 133.31ZM154.177 159.228C154.349 161.245 154.503 163.293 154.637 165.373L159.627 165.05C159.49 162.937 159.334 160.855 159.159 158.803L154.177 159.228ZM154.637 165.373C154.77 167.426 154.918 169.464 155.082 171.486L160.066 171.084C159.904 169.088 159.758 167.077 159.627 165.05L154.637 165.373ZM156.473 185.398C156.941 189.313 157.47 193.168 158.056 196.963L162.998 196.199C162.42 192.462 161.899 188.663 161.437 184.803L156.473 185.398ZM160.522 210.887C161.302 214.786 162.147 218.616 163.055 222.379L167.916 221.206C167.023 217.507 166.192 213.741 165.424 209.905L160.522 210.887ZM166.684 235.946C167.815 239.785 169.015 243.548 170.282 247.235L175.01 245.611C173.768 241.994 172.59 238.302 171.48 234.533L166.684 235.946ZM175.19 260.34C176.701 264.055 178.285 267.687 179.939 271.237L184.471 269.125C182.853 265.652 181.302 262.095 179.821 258.456L175.19 260.34ZM186.23 283.735C188.141 287.258 190.126 290.689 192.181 294.032L196.44 291.413C194.433 288.148 192.493 284.794 190.625 281.351L186.23 283.735ZM199.909 305.722C202.222 308.98 204.607 312.143 207.061 315.211L210.966 312.087C208.571 309.094 206.244 306.008 203.986 302.828L199.909 305.722ZM216.2 325.862C218.909 328.806 221.687 331.649 224.53 334.394L228.003 330.797C225.23 328.12 222.521 325.347 219.88 322.476L216.2 325.862ZM234.932 343.757C237.999 346.33 241.13 348.801 244.32 351.171L247.302 347.157C244.19 344.846 241.137 342.436 238.146 339.927L234.932 343.757ZM255.803 359.108C259.167 361.269 262.587 363.328 266.058 365.287L268.516 360.933C265.126 359.02 261.788 357.01 258.505 354.901L255.803 359.108ZM278.427 371.745C282.019 373.476 285.658 375.108 289.339 376.643L291.263 372.029C287.664 370.527 284.107 368.932 280.597 367.241L278.427 371.745ZM302.369 381.617C306.13 382.924 309.927 384.136 313.756 385.256L315.16 380.457C311.409 379.36 307.691 378.173 304.011 376.894L302.369 381.617ZM327.234 388.786C331.112 389.687 335.016 390.498 338.943 391.22L339.847 386.303C335.995 385.594 332.167 384.799 328.366 383.916L327.234 388.786ZM352.689 393.379C356.631 393.894 360.591 394.324 364.565 394.671L364.999 389.69C361.096 389.349 357.207 388.927 353.337 388.421L352.689 393.379ZM378.453 395.542C382.422 395.695 386.399 395.768 390.382 395.762L390.374 390.762C386.458 390.768 382.547 390.696 378.646 390.546L378.453 395.542ZM404.297 395.42C408.263 395.233 412.229 394.969 416.191 394.63L415.765 389.649C411.866 389.982 407.963 390.242 404.061 390.426L404.297 395.42ZM430.027 393.142C433.966 392.631 437.898 392.048 441.817 391.392L440.993 386.461C437.134 387.106 433.263 387.681 429.384 388.183L430.027 393.142ZM455.485 388.808C459.375 387.987 463.248 387.096 467.102 386.136L465.893 381.285C462.098 382.23 458.283 383.108 454.452 383.916L455.485 388.808ZM480.527 382.491C484.342 381.368 488.132 380.178 491.893 378.922L490.309 374.179C486.605 375.417 482.872 376.589 479.115 377.694L480.527 382.491ZM505 374.231C508.713 372.812 512.393 371.328 516.035 369.779L514.078 365.178C510.494 366.702 506.871 368.164 503.215 369.561L505 374.231ZM528.736 364.044C532.332 362.324 535.883 360.54 539.387 358.693L537.055 354.27C533.609 356.086 530.116 357.841 526.578 359.534L528.736 364.044ZM551.543 351.919C554.989 349.89 558.381 347.798 561.714 345.645L559 341.446C555.727 343.56 552.394 345.616 549.007 347.609L551.543 351.919ZM573.188 337.818C576.445 335.472 579.634 333.064 582.751 330.596L579.647 326.676C576.591 329.097 573.462 331.459 570.266 333.76L573.188 337.818ZM593.428 321.649C596.422 318.993 599.336 316.276 602.164 313.499L598.661 309.931C595.895 312.647 593.042 315.307 590.11 317.909L593.428 321.649ZM611.827 303.405C614.5 300.43 617.077 297.395 619.553 294.303L615.649 291.178C613.234 294.195 610.718 297.157 608.108 300.063L611.827 303.405ZM627.91 283.082C630.191 279.781 632.359 276.421 634.408 273.005L630.121 270.433C628.128 273.755 626.018 277.025 623.797 280.24L627.91 283.082ZM641.125 260.749C642.911 257.158 644.569 253.511 646.091 249.811L641.467 247.908C639.991 251.496 638.382 255.035 636.648 258.523L641.125 260.749ZM650.857 236.648C652.056 232.828 653.112 228.957 654.02 225.039L649.149 223.911C648.27 227.704 647.248 231.451 646.087 235.152L650.857 236.648ZM656.56 211.279C656.835 209.287 657.072 207.284 657.271 205.271L652.295 204.781C652.103 206.729 651.873 208.667 651.607 210.594L656.56 211.279ZM657.271 205.271C657.474 203.209 657.649 201.148 657.796 199.088L652.809 198.732C652.665 200.747 652.493 202.764 652.295 204.781L657.271 205.271ZM658.373 184.646C658.407 180.499 658.328 176.366 658.135 172.255L653.141 172.489C653.329 176.507 653.406 180.548 653.373 184.604L658.373 184.646ZM656.985 157.844C656.518 153.717 655.933 149.623 655.231 145.569L650.305 146.421C650.989 150.378 651.56 154.376 652.017 158.407L656.985 157.844ZM652.261 131.405C651.262 127.365 650.141 123.378 648.898 119.452L644.131 120.961C645.341 124.784 646.433 128.668 647.408 132.606L652.261 131.405ZM643.985 105.811C642.418 101.95 640.725 98.1644 638.904 94.4632L634.418 96.6701C636.184 100.262 637.829 103.938 639.352 107.691L643.985 105.811ZM631.933 81.734C629.77 78.1725 627.475 74.7107 625.048 71.359L620.998 74.2911C623.344 77.5312 625.565 80.8806 627.66 84.3298L631.933 81.734ZM615.952 60.0175C613.188 56.9058 610.291 53.9193 607.26 51.0687L603.834 54.7107C606.754 57.4569 609.547 60.3359 612.214 63.338L615.952 60.0175ZM596.134 41.6807C592.826 39.185 589.389 36.8353 585.823 34.6422L583.203 38.9011C586.633 41.0105 589.94 43.2707 593.123 45.6721L596.134 41.6807ZM573.003 27.7082C569.275 25.9518 565.43 24.3528 561.467 22.9204L559.768 27.6226C563.584 29.0022 567.285 30.5413 570.871 32.2312L573.003 27.7082ZM547.546 18.7058C543.575 17.7258 539.502 16.9019 535.328 16.2416L534.547 21.1802C538.583 21.8186 542.516 22.6145 546.348 23.5601L547.546 18.7058ZM520.915 14.6478C516.853 14.385 512.706 14.2685 508.474 14.304L508.516 19.3038C512.629 19.2693 516.654 19.3825 520.592 19.6374L520.915 14.6478ZM494.011 14.9969C489.96 15.3464 485.838 15.8289 481.646 16.4488L482.377 21.395C486.471 20.7896 490.493 20.319 494.441 19.9784L494.011 14.9969ZM467.426 19.0265C463.495 19.8675 459.506 20.8247 455.461 21.9014L456.747 26.7332C460.715 25.6772 464.623 24.7392 468.472 23.9159L467.426 19.0265ZM441.649 25.9749C437.8 27.2185 433.903 28.5667 429.959 30.0222L431.69 34.7131C435.572 33.2806 439.404 31.9548 443.186 30.7326L441.649 25.9749ZM416.495 35.3318C412.792 36.8844 409.05 38.5289 405.267 40.2672L407.355 44.8104C411.088 43.095 414.779 41.4732 418.428 39.9428L416.495 35.3318ZM392.334 46.5012C388.693 48.3369 385.017 50.2574 381.306 52.2646L383.684 56.6626C387.354 54.6778 390.988 52.7795 394.585 50.9659L392.334 46.5012ZM368.857 59.2476C367.06 60.2912 365.255 61.3547 363.442 62.4383L366.008 66.7299C367.803 65.657 369.589 64.6042 371.368 63.5712L368.857 59.2476ZM30.8758 2.10766L27.4625 5.04738L30.7254 8.83597L34.1387 5.89625L30.8758 2.10766ZM19.498 11.9067L12.6714 17.7862L15.9343 21.5748L22.7609 15.6953L19.498 11.9067ZM4.7069 24.6456L1.29356 27.5853L4.55647 31.3739L7.96981 28.4342L4.7069 24.6456ZM1.9207 31.769L9.72653 35.1933L11.7352 30.6145L3.92934 27.1902L1.9207 31.769ZM27.9401 43.1833L35.746 46.6076L37.7546 42.0288L29.9488 38.6045L27.9401 43.1833Z" fill="#FFD889"/>
</svg>
