<svg width="36" height="168" viewBox="0 0 36 168" fill="none" xmlns="http://www.w3.org/2000/svg">
<path d="M21.4206 4.1671C21.2369 6.07009 20.3696 67.3532 20.3696 67.3532L19.3669 105.724L19.8345 119.708C19.8345 119.708 20.9703 127.372 20.9905 128.236C21.0004 129.065 21.052 129.769 21.1353 129.783C21.2187 129.798 24.1212 129.867 27.576 129.936C31.0309 130.004 35.0548 130.229 35.0548 130.229L18.0612 167.191L0 129.069L4.51781 129.261C4.51781 129.261 7.36282 129.535 10.3018 129.595C13.2408 129.654 15.8306 129.734 16.0703 129.743C16.3933 129.768 15.9425 126.263 15.9425 126.263C15.9425 126.263 15.4802 96.0357 15.2458 76.6666C15.0345 59.2055 12.9023 2.6969 12.9023 2.6969L21.4676 0C21.4676 0 21.7361 0.186424 21.4206 4.1671ZM7.38354 131.654L12.8144 143.078L16.1012 152.265L17.9301 156.634L28.5522 132.833L7.38354 131.654Z" fill="url(#paint0_linear_333_878)"/>
<defs>
<linearGradient id="paint0_linear_333_878" x1="17.5274" y1="177" x2="17.5274" y2="-113.5" gradientUnits="userSpaceOnUse">
<stop stop-color="#FFDC99"/>
<stop offset="1" stop-color="#FFDC99" stop-opacity="0"/>
</linearGradient>
</defs>
</svg>
