<svg width="605" height="508" viewBox="0 0 605 508" fill="none" xmlns="http://www.w3.org/2000/svg">
<path d="M365.842 52.6352L363.344 52.727L363.527 57.7236L366.026 57.6319L365.842 52.6352ZM566.586 359.305L564.302 358.287L564.302 358.287L566.586 359.305ZM112.944 242.814L115.303 243.641L115.303 243.641L112.944 242.814ZM26.8255 19.1185L24.4081 18.4812L23.1335 23.316L25.5509 23.9533L26.8255 19.1185ZM24.6976 43.5387L26.3085 45.4505L30.1322 42.2288L28.5213 40.317L24.6976 43.5387ZM2.80957 13.6807L2.18197 11.2608C1.35069 11.4764 0.688254 12.1035 0.427551 12.9218C0.166848 13.74 0.344376 14.6348 0.897721 15.2916L2.80957 13.6807ZM41.2282 6.29976L43.6482 5.67217L42.393 0.832282L39.973 1.45988L41.2282 6.29976ZM31.23 25.7852L33.5849 26.6243L35.2633 21.9144L32.9083 21.0753L31.23 25.7852ZM46.538 26.74L44.2777 25.6718L42.1413 30.1924L44.4016 31.2606L46.538 26.74ZM55.2774 36.9222L57.4491 38.1606L59.926 33.8172L57.7543 32.5788L55.2774 36.9222ZM70.2391 40.4667L68.189 39.036L65.3277 43.1364L67.3779 44.5671L70.2391 40.4667ZM77.1277 51.974L79.0546 53.5669L82.2403 49.7132L80.3134 48.1203L77.1277 51.974ZM91.2241 58.0941L89.4668 56.316L85.9105 59.8305L87.6678 61.6087L91.2241 58.0941ZM95.8641 70.6844L97.4533 72.6142L101.313 69.4356L99.7237 67.5058L95.8641 70.6844ZM108.486 79.4102L107.117 77.3184L102.933 80.0567L104.302 82.1485L108.486 79.4102ZM110.501 92.684L111.665 94.8968L116.09 92.5699L114.927 90.3572L110.501 92.684ZM121.07 103.798L120.157 101.47L115.503 103.296L116.415 105.623L121.07 103.798ZM120.344 117.183L121.04 119.584L125.843 118.192L125.147 115.791L120.344 117.183ZM128.536 130.211L128.086 127.752L123.168 128.651L123.617 131.11L128.536 130.211ZM125.327 143.259L125.577 145.746L130.552 145.246L130.302 142.759L125.327 143.259ZM131.134 157.418L131.097 154.919L126.098 154.992L126.134 157.492L131.134 157.418ZM125.898 169.777L125.769 172.273L130.762 172.533L130.892 170.036L125.898 169.777ZM129.61 184.659L129.914 182.177L124.95 181.571L124.647 184.052L129.61 184.659ZM122.814 196.273L122.378 198.735L127.302 199.606L127.738 197.145L122.814 196.273ZM124.764 211.529L125.337 209.096L120.47 207.95L119.897 210.383L124.764 211.529ZM116.824 222.269L116.147 224.676L120.961 226.029L121.637 223.623L116.824 222.269ZM117.368 237.578L118.152 235.204L113.404 233.636L112.62 236.01L117.368 237.578ZM108.588 247.888L107.813 250.265L112.566 251.816L113.342 249.439L108.588 247.888ZM109.383 262.74L110.032 260.326L105.203 259.029L104.555 261.443L109.383 262.74ZM101.697 273.204L101.167 275.647L106.053 276.707L106.583 274.264L101.697 273.204ZM104.06 287.868L104.439 285.397L99.4972 284.638L99.118 287.109L104.06 287.868ZM97.6106 299.182L97.3721 301.671L102.349 302.148L102.588 299.659L97.6106 299.182ZM101.752 313.372L101.815 310.873L96.817 310.746L96.7536 313.245L101.752 313.372ZM96.8358 325.496L96.9342 327.995L101.93 327.798L101.832 325.3L96.8358 325.496ZM102.905 338.975L102.611 336.493L97.6455 337.081L97.9396 339.563L102.905 338.975ZM99.8056 351.652L100.275 354.108L105.186 353.169L104.717 350.713L99.8056 351.652ZM107.871 364.122L107.195 361.715L102.381 363.066L103.057 365.473L107.871 364.122ZM106.767 377.034L107.618 379.385L112.319 377.682L111.468 375.331L106.767 377.034ZM116.732 388.101L115.68 385.833L111.144 387.938L112.197 390.206L116.732 388.101ZM117.726 401.049L118.942 403.233L123.31 400.799L122.093 398.615L117.726 401.049ZM129.308 410.361L127.911 408.287L123.765 411.081L125.162 413.155L129.308 410.361ZM132.32 423.006L133.859 424.975L137.799 421.897L136.259 419.927L132.32 423.006ZM145.183 430.452L143.492 428.61L139.809 431.991L141.499 433.833L145.183 430.452ZM150.022 442.53L151.829 444.258L155.285 440.645L153.479 438.917L150.022 442.53ZM163.795 448.09L161.869 446.497L158.682 450.35L160.608 451.943L163.795 448.09ZM170.204 459.41L172.221 460.887L175.175 456.852L173.158 455.375L170.204 459.41ZM184.6 463.186L182.491 461.844L179.808 466.063L181.917 467.405L184.6 463.186ZM192.309 473.628L194.487 474.855L196.941 470.499L194.763 469.272L192.309 473.628ZM207.048 475.717L204.801 474.621L202.61 479.115L204.857 480.211L207.048 475.717ZM215.88 485.254L218.178 486.238L220.147 481.643L217.849 480.658L215.88 485.254ZM230.736 485.765L228.388 484.907L226.672 489.604L229.02 490.462L230.736 485.765ZM240.528 494.37L242.913 495.12L244.414 490.351L242.029 489.601L240.528 494.37ZM255.342 493.418L252.922 492.79L251.666 497.63L254.086 498.258L255.342 493.418ZM265.882 501.05L268.326 501.574L269.375 496.686L266.93 496.161L265.882 501.05ZM280.578 498.741L278.111 498.336L277.302 503.271L279.769 503.675L280.578 498.741ZM291.745 505.388L294.227 505.691L294.833 500.728L292.351 500.425L291.745 505.388ZM306.191 501.784L303.698 501.598L303.327 506.584L305.82 506.77L306.191 501.784ZM317.894 507.425L320.392 507.51L320.563 502.513L318.065 502.428L317.894 507.425ZM331.96 502.578L329.46 502.609L329.523 507.609L332.023 507.577L331.96 502.578ZM344.123 507.182L346.619 507.05L346.355 502.057L343.859 502.188L344.123 507.182ZM357.706 501.13L355.219 501.38L355.717 506.355L358.204 506.106L357.706 501.13ZM370.231 504.653L372.707 504.303L372.006 499.352L369.531 499.703L370.231 504.653ZM383.224 497.428L380.769 497.897L381.706 502.809L384.162 502.34L383.224 497.428ZM396.011 499.819L398.445 499.248L397.302 494.38L394.868 494.952L396.011 499.819ZM408.298 491.445L405.895 492.137L407.279 496.942L409.681 496.25L408.298 491.445ZM421.246 492.646L423.616 491.85L422.025 487.11L419.655 487.906L421.246 492.646ZM432.693 483.15L430.367 484.068L432.203 488.719L434.528 487.801L432.693 483.15ZM445.692 483.101L447.974 482.078L445.929 477.515L443.647 478.538L445.692 483.101ZM456.15 472.523L453.928 473.668L456.217 478.113L458.44 476.968L456.15 472.523ZM469.076 471.166L471.241 469.917L468.743 465.586L466.577 466.835L469.076 471.166ZM478.385 459.572L476.293 460.942L479.033 465.124L481.124 463.754L478.385 459.572ZM491.103 456.859L493.124 455.387L490.18 451.346L488.159 452.818L491.103 456.859ZM499.107 444.343L497.176 445.931L500.352 449.793L502.283 448.205L499.107 444.343ZM511.471 440.249L513.319 438.565L509.95 434.87L508.103 436.554L511.471 440.249ZM518.033 426.943L516.289 428.735L519.873 432.222L521.616 430.43L518.033 426.943ZM529.879 421.487L531.527 419.607L527.768 416.31L526.12 418.19L529.879 421.487ZM534.906 407.545L533.373 409.519L537.323 412.585L538.856 410.611L534.906 407.545ZM546.062 400.818L547.491 398.767L543.39 395.907L541.96 397.958L546.062 400.818ZM549.528 386.388L548.222 388.519L552.485 391.132L553.791 389.001L549.528 386.388ZM559.873 378.501L561.072 376.307L556.684 373.909L555.485 376.103L559.873 378.501ZM561.781 363.763L560.708 366.021L565.224 368.167L566.297 365.909L561.781 363.763ZM571.357 354.663L572.351 352.369L567.763 350.382L566.769 352.676L571.357 354.663ZM572.217 339.65L571.282 341.968L575.92 343.837L576.854 341.518L572.217 339.65ZM581.301 330.093L582.18 327.753L577.499 325.996L576.62 328.336L581.301 330.093ZM581.4 315.004L580.593 317.37L585.325 318.985L586.132 316.619L581.4 315.004ZM589.931 304.967L590.672 302.58L585.897 301.097L585.156 303.485L589.931 304.967ZM589.103 289.936L588.447 292.348L593.272 293.66L593.928 291.248L589.103 289.936ZM596.942 279.402L597.517 276.969L592.652 275.818L592.076 278.251L596.942 279.402ZM595.04 264.436L594.569 266.891L599.479 267.833L599.95 265.378L595.04 264.436ZM602.031 253.238L602.402 250.766L597.458 250.022L597.086 252.495L602.031 253.238ZM598.824 238.515L598.581 241.003L603.558 241.488L603.8 239L598.824 238.515ZM604.696 226.717L604.816 224.22L599.821 223.982L599.702 226.479L604.696 226.717ZM599.93 212.43L599.971 214.93L604.97 214.847L604.929 212.348L599.93 212.43ZM604.355 200.025L604.162 197.532L599.177 197.92L599.37 200.412L604.355 200.025ZM597.744 186.498L598.134 188.967L603.073 188.187L602.683 185.718L597.744 186.498ZM600.307 173.582L599.734 171.148L594.867 172.294L595.44 174.727L600.307 173.582ZM591.61 161.299L592.41 163.668L597.147 162.067L596.346 159.698L591.61 161.299ZM591.873 148.137L590.869 145.847L586.29 147.855L587.294 150.145L591.873 148.137ZM581.027 137.698L582.27 139.867L586.608 137.381L585.365 135.212L581.027 137.698ZM578.69 124.738L577.249 122.696L573.164 125.579L574.605 127.621L578.69 124.738ZM565.963 116.702L567.619 118.575L571.365 115.262L569.708 113.39L565.963 116.702ZM561.071 104.485L559.251 102.772L555.824 106.412L557.644 108.126L561.071 104.485ZM547.017 99.0979L549 100.62L552.044 96.6524L550.06 95.1308L547.017 99.0979ZM539.939 88.0016L537.84 86.6441L535.125 90.8428L537.224 92.2003L539.939 88.0016ZM525.159 85.1239L527.367 86.2968L529.712 81.8812L527.505 80.7083L525.159 85.1239ZM516.406 75.2841L514.125 74.2604L512.078 78.8221L514.358 79.8457L516.406 75.2841ZM501.357 74.5568L503.703 75.4192L505.428 70.7261L503.081 69.8637L501.357 74.5568ZM491.372 65.9196L488.983 65.1844L487.512 69.9632L489.902 70.6985L491.372 65.9196ZM476.307 66.9372L478.734 67.5374L479.935 62.6836L477.508 62.0834L476.307 66.9372ZM465.575 59.4059L463.125 58.9101L462.133 63.8107L464.583 64.3066L465.575 59.4059ZM450.73 61.8324L453.2 62.2175L453.97 57.2771L451.5 56.8921L450.73 61.8324ZM439.333 55.2159L436.851 54.9173L436.254 59.8815L438.736 60.1801L439.333 55.2159ZM424.62 58.7514L427.112 58.9579L427.525 53.975L425.033 53.7685L424.62 58.7514ZM412.869 52.9376L410.373 52.8024L410.102 57.7951L412.599 57.9303L412.869 52.9376ZM398.494 57.3854L400.994 57.4444L401.112 52.4458L398.612 52.3868L398.494 57.3854ZM386.26 52.2467L383.76 52.2482L383.763 57.2482L386.263 57.2467L386.26 52.2467ZM372.2 57.4375L374.699 57.3721L374.569 52.3738L372.07 52.4392L372.2 57.4375ZM23.029 33.7984L21.4182 31.8866L17.5945 35.1083L19.2053 37.0201L23.029 33.7984ZM6.39 21.8101L8.00085 23.722L11.8245 20.5003L10.2137 18.5884L6.39 21.8101ZM7.79767 14.9698L10.2176 14.3422L8.96242 9.5023L6.54248 10.1299L7.79767 14.9698ZM16.717 7.49119L14.297 8.11879L15.5522 12.9587L17.9722 12.3311L16.717 7.49119ZM26.6932 10.0693L29.1131 9.44174L27.8579 4.60185L25.438 5.22945L26.6932 10.0693ZM35.6125 2.59075L33.1926 3.21835L34.4478 8.05823L36.8677 7.43064L35.6125 2.59075ZM26.1882 21.5359C25.5509 23.9533 25.5508 23.9533 25.5506 23.9532C25.5506 23.9532 25.5504 23.9532 25.5503 23.9531C25.5502 23.9531 25.55 23.9531 25.5499 23.953C25.5497 23.953 25.5497 23.953 25.5497 23.953C25.5498 23.953 25.5505 23.9532 25.5517 23.9535C25.554 23.9541 25.5584 23.9553 25.5649 23.9571C25.578 23.9605 25.5993 23.9663 25.6287 23.9744C25.6877 23.9905 25.7792 24.0158 25.902 24.0508C26.1477 24.1206 26.5187 24.2286 27.0052 24.3776C27.9782 24.6757 29.4127 25.1376 31.23 25.7852L32.9083 21.0753C31.0157 20.4008 29.5097 19.9155 28.4697 19.5969C27.9497 19.4376 27.5461 19.32 27.2688 19.2412C27.1301 19.2018 27.023 19.1721 26.9487 19.1518C26.9116 19.1416 26.8826 19.1338 26.862 19.1282C26.8517 19.1255 26.8435 19.1233 26.8374 19.1216C26.8344 19.1208 26.8319 19.1202 26.8299 19.1196C26.8289 19.1194 26.828 19.1191 26.8273 19.1189C26.8269 19.1189 26.8266 19.1188 26.8263 19.1187C26.8261 19.1186 26.8259 19.1186 26.8258 19.1186C26.8257 19.1185 26.8255 19.1185 26.1882 21.5359ZM44.4016 31.2606C47.7558 32.8457 51.4196 34.7222 55.2774 36.9222L57.7543 32.5788C53.7764 30.3103 49.9982 28.3752 46.538 26.74L44.4016 31.2606ZM67.3779 44.5671C70.5999 46.8154 73.868 49.2793 77.1277 51.974L80.3134 48.1203C76.9426 45.3338 73.5656 42.7879 70.2391 40.4667L67.3779 44.5671ZM87.6678 61.6087C90.465 64.4392 93.2094 67.4609 95.8641 70.6844L99.7237 67.5058C96.9688 64.1606 94.1226 61.0271 91.2241 58.0941L87.6678 61.6087ZM104.302 82.1485C106.485 85.4824 108.56 88.9916 110.501 92.684L114.927 90.3572C112.91 86.5203 110.753 82.8739 108.486 79.4102L104.302 82.1485ZM116.415 105.623C117.864 109.318 119.181 113.169 120.344 117.183L125.147 115.791C123.94 111.63 122.575 107.634 121.07 103.798L116.415 105.623ZM123.617 131.11C124.332 135.022 124.907 139.07 125.327 143.259L130.302 142.759C129.868 138.438 129.275 134.257 128.536 130.211L123.617 131.11ZM126.134 157.492C126.192 161.472 126.117 165.566 125.898 169.777L130.892 170.036C131.116 165.717 131.193 161.512 131.134 157.418L126.134 157.492ZM124.647 184.052C124.161 188.03 123.553 192.103 122.814 196.273L127.738 197.145C128.491 192.889 129.113 188.727 129.61 184.659L124.647 184.052ZM119.897 210.383C118.983 214.267 117.96 218.228 116.824 222.269L121.637 223.623C122.792 219.515 123.833 215.484 124.764 211.529L119.897 210.383ZM112.62 236.01C111.968 237.984 111.29 239.977 110.585 241.987L115.303 243.641C116.018 241.603 116.706 239.581 117.368 237.578L112.62 236.01ZM110.585 241.987C109.892 243.963 109.227 245.93 108.588 247.888L113.342 249.439C113.969 247.516 114.623 245.583 115.303 243.641L110.585 241.987ZM104.555 261.443C103.491 265.403 102.539 269.324 101.697 273.204L106.583 274.264C107.408 270.465 108.34 266.624 109.383 262.74L104.555 261.443ZM99.118 287.109C98.493 291.182 97.9917 295.206 97.6106 299.182L102.588 299.659C102.96 295.779 103.449 291.848 104.06 287.868L99.118 287.109ZM96.7536 313.245C96.6484 317.386 96.6772 321.47 96.8358 325.496L101.832 325.3C101.678 321.383 101.65 317.407 101.752 313.372L96.7536 313.245ZM97.9396 339.563C98.4246 343.659 99.0483 347.689 99.8056 351.652L104.717 350.713C103.982 346.867 103.376 342.954 102.905 338.975L97.9396 339.563ZM103.057 365.473C104.159 369.4 105.398 373.254 106.767 377.034L111.468 375.331C110.141 371.667 108.94 367.93 107.871 364.122L103.057 365.473ZM112.197 390.206C113.912 393.9 115.757 397.515 117.726 401.049L122.093 398.615C120.184 395.188 118.395 391.683 116.732 388.101L112.197 390.206ZM125.162 413.155C127.431 416.522 129.819 419.807 132.32 423.006L136.259 419.927C133.83 416.819 131.511 413.63 129.308 410.361L125.162 413.155ZM141.499 433.833C144.238 436.817 147.081 439.717 150.022 442.53L153.479 438.917C150.615 436.178 147.847 433.355 145.183 430.452L141.499 433.833ZM160.608 451.943C163.721 454.517 166.921 457.006 170.204 459.41L173.158 455.375C169.953 453.029 166.83 450.6 163.795 448.09L160.608 451.943ZM181.917 467.405C185.31 469.563 188.776 471.638 192.309 473.628L194.763 469.272C191.307 467.324 187.917 465.295 184.6 463.186L181.917 467.405ZM204.857 480.211C208.475 481.974 212.151 483.656 215.88 485.254L217.849 480.658C214.194 479.091 210.591 477.444 207.048 475.717L204.857 480.211ZM229.02 490.462C232.812 491.846 236.649 493.149 240.528 494.37L242.029 489.601C238.222 488.402 234.455 487.124 230.736 485.765L229.02 490.462ZM254.086 498.258C257.985 499.269 261.918 500.2 265.882 501.05L266.93 496.161C263.036 495.326 259.171 494.412 255.342 493.418L254.086 498.258ZM279.769 503.675C283.739 504.326 287.732 504.897 291.745 505.388L292.351 500.425C288.406 499.942 284.48 499.381 280.578 498.741L279.769 503.675ZM305.82 506.77C309.832 507.069 313.858 507.287 317.894 507.425L318.065 502.428C314.095 502.292 310.136 502.077 306.191 501.784L305.82 506.77ZM332.023 507.577C336.053 507.526 340.087 507.395 344.123 507.182L343.859 502.188C339.891 502.398 335.923 502.527 331.96 502.578L332.023 507.577ZM358.204 506.106C362.219 505.703 366.229 505.22 370.231 504.653L369.531 499.703C365.597 500.259 361.654 500.735 357.706 501.13L358.204 506.106ZM384.162 502.34C388.126 501.583 392.077 500.743 396.011 499.819L394.868 494.952C391.003 495.859 387.12 496.684 383.224 497.428L384.162 502.34ZM409.681 496.25C413.56 495.133 417.416 493.932 421.246 492.646L419.655 487.906C415.894 489.169 412.107 490.348 408.298 491.445L409.681 496.25ZM434.528 487.801C438.282 486.32 442.005 484.753 445.692 483.101L443.647 478.538C440.03 480.159 436.377 481.696 432.693 483.15L434.528 487.801ZM458.44 476.968C462.026 475.121 465.573 473.187 469.076 471.166L466.577 466.835C463.144 468.816 459.667 470.712 456.15 472.523L458.44 476.968ZM481.124 463.754C484.5 461.543 487.827 459.245 491.103 456.859L488.159 452.818C484.951 455.154 481.692 457.405 478.385 459.572L481.124 463.754ZM502.283 448.205C505.402 445.64 508.466 442.988 511.471 440.249L508.103 436.554C505.161 439.236 502.162 441.832 499.107 444.343L502.283 448.205ZM521.616 430.43C524.434 427.534 527.189 424.553 529.879 421.487L526.12 418.19C523.487 421.191 520.79 424.109 518.033 426.943L521.616 430.43ZM538.856 410.611C541.325 407.429 543.729 404.165 546.062 400.818L541.96 397.958C539.676 401.235 537.323 404.43 534.906 407.545L538.856 410.611ZM553.791 389.001C555.889 385.579 557.917 382.079 559.873 378.501L555.485 376.103C553.569 379.609 551.582 383.037 549.528 386.388L553.791 389.001ZM566.297 365.909C567.173 364.066 568.03 362.204 568.869 360.323L564.302 358.287C563.48 360.131 562.639 361.957 561.781 363.763L566.297 365.909ZM568.869 360.323C569.712 358.431 570.542 356.545 571.357 354.663L566.769 352.676C565.961 354.541 565.139 356.411 564.302 358.287L568.869 360.323ZM576.854 341.518C578.398 337.686 579.881 333.878 581.301 330.093L576.62 328.336C575.214 332.082 573.746 335.854 572.217 339.65L576.854 341.518ZM586.132 316.619C587.468 312.707 588.734 308.823 589.931 304.967L585.156 303.485C583.973 307.295 582.721 311.135 581.4 315.004L586.132 316.619ZM593.928 291.248C595.011 287.265 596.016 283.316 596.942 279.402L592.076 278.251C591.163 282.11 590.172 286.005 589.103 289.936L593.928 291.248ZM599.95 265.378C600.735 261.29 601.429 257.243 602.031 253.238L597.086 252.495C596.495 256.431 595.812 260.412 595.04 264.436L599.95 265.378ZM603.8 239C604.204 234.855 604.504 230.76 604.696 226.717L599.702 226.479C599.513 230.437 599.22 234.45 598.824 238.515L603.8 239ZM604.929 212.348C604.861 208.178 604.67 204.07 604.355 200.025L599.37 200.412C599.677 204.352 599.863 208.359 599.93 212.43L604.929 212.348ZM602.683 185.718C602.033 181.597 601.241 177.551 600.307 173.582L595.44 174.727C596.345 178.572 597.112 182.496 597.744 186.498L602.683 185.718ZM596.346 159.698C595.013 155.755 593.523 151.9 591.873 148.137L587.294 150.145C588.884 153.772 590.322 157.491 591.61 161.299L596.346 159.698ZM585.365 135.212C583.307 131.62 581.082 128.127 578.69 124.738L574.605 127.621C576.906 130.881 579.046 134.241 581.027 137.698L585.365 135.212ZM569.708 113.39C566.991 110.317 564.112 107.348 561.071 104.485L557.644 108.126C560.575 110.885 563.347 113.745 565.963 116.702L569.708 113.39ZM550.06 95.1308C546.833 92.655 543.459 90.2778 539.939 88.0016L537.224 92.2003C540.635 94.4054 543.898 96.7055 547.017 99.0979L550.06 95.1308ZM527.505 80.7083C523.932 78.8105 520.233 77.0018 516.406 75.2841L514.358 79.8457C518.088 81.5194 521.687 83.2795 525.159 85.1239L527.505 80.7083ZM503.081 69.8637C499.288 68.4696 495.385 67.1545 491.372 65.9196L489.902 70.6985C493.832 71.9079 497.65 73.1945 501.357 74.5568L503.081 69.8637ZM477.508 62.0834C473.623 61.1226 469.645 60.2297 465.575 59.4059L464.583 64.3066C468.586 65.1167 472.494 65.9939 476.307 66.9372L477.508 62.0834ZM451.5 56.8921C447.525 56.2725 443.47 55.7135 439.333 55.2159L438.736 60.1801C442.817 60.6709 446.814 61.2221 450.73 61.8324L451.5 56.8921ZM425.033 53.7685C421.048 53.4383 416.994 53.1611 412.869 52.9376L412.599 57.9303C416.677 58.1513 420.684 58.4252 424.62 58.7514L425.033 53.7685ZM398.612 52.3868C394.558 52.2911 390.441 52.2442 386.26 52.2467L386.263 57.2467C390.405 57.2442 394.482 57.2907 398.494 57.3854L398.612 52.3868ZM372.07 52.4392C370.008 52.4932 367.933 52.5585 365.842 52.6352L366.026 57.6319C368.099 57.5557 370.157 57.491 372.2 57.4375L372.07 52.4392ZM28.5213 40.317L23.029 33.7984L19.2053 37.0201L24.6976 43.5387L28.5213 40.317ZM10.2137 18.5884L4.72142 12.0699L0.897721 15.2916L6.39 21.8101L10.2137 18.5884ZM3.43717 16.1006L7.79767 14.9698L6.54248 10.1299L2.18197 11.2608L3.43717 16.1006ZM17.9722 12.3311L26.6932 10.0693L25.438 5.22945L16.717 7.49119L17.9722 12.3311ZM36.8677 7.43064L41.2282 6.29976L39.973 1.45988L35.6125 2.59075L36.8677 7.43064Z" fill="#FABB55"/>
</svg>
