<svg width="1629" height="940" viewBox="0 0 1629 940" fill="none" xmlns="http://www.w3.org/2000/svg">
<g clip-path="url(#clip0_201_41)">
<g filter="url(#filter0_i_201_41)">
<path d="M1465.49 5.79273L1442.64 7.67534L1423.38 5.48023L1398.75 4.93413L1394.06 4.56861L1369.27 0.182835L1346.31 7.71639e-05L1282.48 5.48235L1257.52 2.73905L1242.61 4.38591L1222.34 8.40631L1204.42 8.22361L1195.54 9.68551L1190.85 8.40631L1183.47 5.48235L1144.94 2.74117C1144.94 2.74117 1106.58 3.83551 1100.04 4.5665C1093.01 5.66298 1078.27 5.48235 1078.27 5.48235L1060.67 7.3077L1049.79 5.48235L1037.22 8.22144L1000.36 6.39397L954.294 10.9645H903.956L899.892 14.5561L899.283 19.7676L894.4 20.7462L892.792 25.3096L892.045 29.7006L789.098 32.3038L784.683 27.251L760.175 22.8315L745.233 25.8258L732.495 20.7442L712.065 13.3089C711.588 13.5696 711.186 13.8913 710.756 14.2351C709.675 15.1005 708.419 16.1057 705.344 16.6299C703.114 17.0099 700.084 16.6313 696.979 16.2434C692.618 15.6986 688.11 15.1355 685.468 16.6299C680.944 19.1884 674.746 21.3813 671.563 21.3813C668.547 21.3813 662.851 22.4778 659.166 23.9398C649.496 27.6539 647.315 26.5368 644.137 24.909C643.406 24.5344 642.622 24.1328 641.682 23.7568C638.332 22.2948 614.207 20.2848 609.852 21.9296C603.988 24.1225 603.485 23.9398 598.627 19.0056C591.423 11.513 575.675 13.7057 575.675 13.7057L552.054 10.9645L516.202 9.13707C516.202 9.13707 477.033 10.4948 456.728 10.0508C449.525 9.89332 438.3 9.13707 438.3 9.13707C438.3 9.13707 351.687 0.365437 346.493 3.28939C342.472 5.6651 313.657 10.051 310.642 8.77177C309.469 8.40628 303.94 8.95453 298.579 10.2338C290.538 12.0612 288.025 12.0612 286.015 10.2338C284.172 8.58903 282.329 8.40629 278.978 9.86827C274.958 11.513 259.712 13.8887 251.671 13.8887C231.902 14.4369 217.327 13.3405 210.794 11.3302C205.265 9.50278 201.412 9.13728 197.559 10.4165C194.543 11.3302 187.339 12.2439 181.308 12.4267C175.277 12.4267 168.576 13.706 166.23 14.9852C163.047 16.6299 159.864 16.8126 154.503 15.5334C150.315 14.4369 145.457 13.7059 143.614 13.7059C141.771 13.7059 139.928 12.7922 139.258 11.8785C138.588 10.782 131.049 9.50277 122.505 8.95453C102.066 7.6753 101.731 7.67526 90.0042 10.5992C81.2926 12.7922 79.1148 12.7922 73.5863 10.4165C68.5603 8.4063 65.0422 8.22358 56.4981 9.50281C49.6294 10.782 45.106 10.782 44.1008 9.68551C40.9178 6.21331 12.4376 6.0306 2.72084 9.32005C-5.99074 12.244 -6.32579 12.6094 -6.32579 18.8228C-6.32579 22.295 -7.16343 26.8637 -8.16861 28.8739C-10.7058 34.0633 -39.1375 516.255 -36.8715 562L-25.1587 559.983H-18.0406L-14.69 555.414L-12.5939 550.845L39.7574 553.586L41.1487 555.357L114.479 537.859H242.199L244.144 535.312L254.196 530.743L256.292 525.261H263.41L266.761 520.692L268.857 516.123L282.676 518.864L287.702 525.261L321.208 535.312H342.987L347.583 537.567C348.33 537.574 349.084 537.581 349.845 537.588C354.462 537.631 359.343 537.676 364.769 537.676C369.16 537.676 372.224 537.021 375.121 536.402C380.469 535.26 385.25 534.239 396.767 537.676C401.719 539.125 407.715 538.485 412.12 538.015C413.826 537.833 415.293 537.676 416.368 537.676C417.32 537.676 418.864 537.461 420.855 537.183C427.273 536.289 438.336 534.747 449.204 537.676L475.339 535.848L507.337 542.245C525.263 540.783 543.859 540.052 548.382 540.6C553.073 541.331 577.868 541.514 603.667 541.331C674.365 540.417 676.878 540.417 706.699 542.976C736.898 545.457 744.332 544.824 757.151 543.732C761.328 543.376 766.076 542.971 772.37 542.61C776.435 542.377 778.936 541.931 781.382 541.495C785.441 540.772 789.352 540.075 800.013 540.417C811.908 540.965 824.305 542.245 827.823 543.341C831.844 544.62 848.429 545.169 874.732 544.803C910.248 544.438 927.504 545.351 959.669 549.555C963.858 550.103 973.574 552.113 981.448 553.941C990.327 556.133 1013.11 554.669 1018.97 554.121C1020.38 553.997 1021.78 553.816 1023.16 553.637C1027.9 553.025 1032.53 552.425 1037.07 554.121C1041.34 555.639 1045.79 555.42 1055.31 554.953C1061.84 554.633 1070.76 554.196 1083.64 554.121C1091.29 554.121 1099.01 553.999 1105.99 553.889C1118.11 553.697 1127.99 553.541 1131.39 554.121C1132.5 554.287 1133.52 554.448 1134.44 554.596C1139.66 555.427 1142.18 555.828 1144.46 554.121C1145.86 553.025 1148.48 553.244 1152.66 553.595C1155.45 553.829 1158.93 554.121 1163.22 554.121C1166.67 554.121 1169.94 554.319 1172.87 554.497C1177.91 554.801 1181.94 555.045 1184.16 554.121C1185.49 553.479 1189.37 553.719 1194.73 554.05C1201.56 554.472 1210.79 555.043 1220.18 554.121C1261.23 550.407 1287.31 553.697 1304.06 555.81C1317.81 557.544 1325.27 558.486 1329.58 554.121C1332.03 551.717 1333.4 551.851 1343.25 552.811C1346.88 553.164 1351.65 553.629 1358.06 554.121C1364.84 554.696 1371.99 554.2 1378.78 553.729C1387.1 553.152 1394.88 552.612 1400.78 554.121C1414.68 557.776 1419.54 555.583 1422.05 554.121C1422.16 554.061 1422.26 553.997 1422.38 553.929C1424.7 552.541 1429.69 549.552 1445.34 549.552C1451.4 549.552 1456.63 549.671 1460.77 549.765C1466.93 549.904 1470.71 549.989 1471.31 549.552C1472.48 548.821 1479.35 548.821 1486.38 549.552C1493.59 550.466 1510.84 551.745 1524.58 552.476C1538.49 553.207 1551.22 554.852 1553.23 555.949C1555.07 557.045 1557.42 557.411 1558.59 556.68C1559.76 555.949 1572.33 555.583 1586.4 555.766C1616.39 556.314 1617.23 555.949 1613.37 543.705C1610.19 533.836 1607.34 513.37 1610.52 510.446C1613.88 507.34 1613.71 501.857 1609.85 496.009C1605 488.517 1620.73 96.8558 1624.41 82.967C1626.09 77.3018 1628.6 70.723 1630.28 68.3473C1631.95 65.9716 1634.97 60.6719 1637.15 56.4687L1641 48.7934L1637.98 38.194L1638.65 9.50281L1591.41 7.12706L1571.14 10.051L1563.1 11.3302L1533.7 3.65485L1523.2 4.93413H1517.7H1510.2L1508.68 10.2295L1505.99 9.79536L1504.11 14.1103H1490.21L1481.71 14.2086L1474.27 15.1158L1465.49 5.79273Z" fill="#FCB931"/>
</g>
<g filter="url(#filter1_i_201_41)">
<path d="M1498.64 23.7412L1474.78 25.607L1454.65 23.4315L1428.92 22.8902L1424.02 22.528L1398.12 18.1812L1374.14 18.0001L1307.46 23.4336L1281.38 20.7147L1265.81 22.3469L1244.63 26.3315L1225.9 26.1504L1216.63 27.5993L1211.73 26.3315L1204.02 23.4336L1163.77 20.7168C1163.77 20.7168 1123.69 21.8014 1116.87 22.5259C1109.52 23.6126 1104.88 25.2467 1104.88 25.2467L1086.5 27.0558L1075.12 25.2467L1062 27.9614L1015.5 34.4819L960.245 33.8015L956 37.3611L955.364 42.5262L950.262 43.4962L948.582 48.019L947.802 52.3708L792.022 50.0164L787.409 45.0085L761.805 40.6284L746.196 43.5961L732.889 38.5596L711.545 31.1905C711.047 31.4488 710.627 31.7677 710.178 32.1084C709.049 32.9661 707.736 33.9624 704.524 34.4819C702.194 34.8586 699.029 34.4833 695.785 34.0989C691.229 33.559 686.52 33.0008 683.759 34.4819C679.034 37.0176 672.558 39.1911 669.233 39.1911C666.082 39.1911 660.132 40.2778 656.281 41.7268C646.179 45.4079 632.842 44.8254 629.522 43.212C628.759 42.8407 627.94 42.4427 626.957 42.0701C623.457 40.6211 598.254 38.629 593.704 40.2591C587.578 42.4325 587.053 42.2514 581.978 37.3611C574.452 29.9351 558 32.1084 558 32.1084L544.382 28.867L515 29.2294L444.252 35.6557L425 34.7501C425 34.7501 325.059 15.3622 319.634 18.2601C315.433 20.6147 285.33 24.9616 282.18 23.6937C280.955 23.3315 275.179 23.8748 269.579 25.1427C261.178 26.9539 258.552 26.9539 256.452 25.1427C254.527 23.5126 252.602 23.3315 249.102 24.7805C244.901 26.4106 228.974 28.7651 220.574 28.7651C199.921 29.3085 194.695 31.2218 187.869 29.2294C182.093 27.4182 178.068 27.056 174.043 28.3238C170.892 29.2294 163.366 30.135 157.066 30.3161C150.765 30.3161 143.764 31.584 141.314 32.8519C137.989 34.482 134.663 34.663 129.063 33.3952C124.687 32.3085 119.612 31.584 117.687 31.584C115.761 31.584 113.836 30.6784 113.136 29.7728C112.436 28.6861 104.56 27.4182 95.6342 26.8749C74.282 25.607 73.9321 25.607 61.6808 28.5049C52.5799 30.6784 50.3047 30.6784 44.5291 28.3238C39.2785 26.3315 35.6031 26.1504 26.6772 27.4183C19.5015 28.6861 14.7759 28.6861 13.7258 27.5993C10.4004 24.158 -19.3527 23.9769 -29.5037 27.2371C-38.6047 30.1351 -38.9547 30.4972 -38.9547 36.6554C-38.9547 40.0967 -39.8298 44.6247 -40.8799 46.617C-43.5305 51.7602 -73.233 529.662 -70.8657 575L-58.6293 573.001H-51.1931L-47.6927 568.473L-45.503 563.944L9.1882 566.661L10.6417 568.416L87.2493 551.073H220.678L222.71 548.549L233.212 544.021L235.401 538.587H242.838L246.338 534.059L248.528 529.531L262.965 532.248L268.215 538.587L303.219 548.549H325.971L330.772 550.785C331.553 550.791 332.341 550.798 333.136 550.805C337.959 550.848 343.058 550.892 348.727 550.892C353.314 550.892 356.515 550.244 359.542 549.63C365.128 548.498 370.123 547.486 382.155 550.892C387.328 552.329 393.592 551.694 398.194 551.228C399.976 551.048 401.509 550.892 402.632 550.892C403.627 550.892 405.24 550.679 407.32 550.404C414.024 549.518 425.582 547.989 436.936 550.892L464.239 549.081L497.667 555.42C516.394 553.971 535.821 553.247 540.547 553.79C545.447 554.515 571.35 554.696 598.303 554.515C672.16 553.609 674.786 553.609 705.939 556.145C737.488 558.604 745.254 557.976 758.646 556.894C763.01 556.542 767.971 556.141 774.546 555.783C778.793 555.551 781.405 555.11 783.961 554.678C788.201 553.961 792.286 553.27 803.424 553.609C815.851 554.152 828.802 555.42 832.477 556.507C836.678 557.775 854.004 558.318 881.482 557.956C918.586 557.594 936.613 558.499 970.217 562.665C974.592 563.209 984.743 565.201 992.969 567.012C1002.25 569.186 1026.05 567.735 1032.17 567.191C1033.64 567.068 1035.1 566.889 1036.55 566.711C1041.5 566.104 1046.34 565.51 1051.08 567.191C1055.54 568.695 1060.19 568.479 1070.13 568.016C1076.95 567.699 1086.27 567.265 1099.73 567.191C1107.72 567.191 1115.79 567.07 1123.08 566.961C1135.73 566.771 1146.06 566.617 1149.61 567.191C1150.77 567.355 1151.83 567.515 1152.8 567.662C1158.25 568.485 1160.88 568.883 1163.26 567.191C1164.73 566.105 1167.46 566.322 1171.83 566.67C1174.74 566.901 1178.38 567.191 1182.86 567.191C1186.47 567.191 1189.89 567.387 1192.95 567.563C1198.21 567.865 1202.42 568.107 1204.74 567.191C1206.13 566.554 1210.18 566.792 1215.78 567.121C1222.92 567.539 1232.56 568.105 1242.37 567.191C1285.25 563.51 1312.5 566.771 1330 568.865C1344.36 570.583 1352.16 571.517 1356.66 567.191C1359.22 564.808 1360.65 564.941 1370.94 565.892C1374.73 566.243 1379.72 566.704 1386.41 567.191C1393.49 567.761 1400.96 567.27 1408.06 566.803C1416.75 566.231 1424.87 565.696 1431.04 567.191C1445.57 570.814 1450.64 568.64 1453.27 567.191C1453.37 567.132 1453.49 567.068 1453.61 567C1456.03 565.625 1461.25 562.663 1477.59 562.663C1483.93 562.663 1489.39 562.78 1493.72 562.873C1500.15 563.012 1504.09 563.096 1504.72 562.663C1505.95 561.939 1513.12 561.939 1520.47 562.663C1528 563.569 1546.03 564.837 1560.38 565.561C1574.9 566.286 1588.21 567.916 1590.31 569.002C1592.23 570.089 1594.68 570.451 1595.91 569.727C1597.13 569.002 1610.26 568.64 1624.96 568.821C1656.29 569.365 1657.16 569.002 1653.14 556.867C1649.81 547.087 1646.84 526.803 1650.16 523.905C1653.66 520.826 1653.49 515.392 1649.46 509.596C1644.39 502.17 1660.82 113.994 1664.67 100.229C1666.42 94.6141 1669.05 88.0938 1670.8 85.7392C1672.55 83.3846 1675.7 78.1321 1677.97 73.9663L1682 66.3593L1678.85 55.8542L1679.55 27.4183L1630.19 25.0636L1609.02 27.9616L1600.62 29.2294L1569.9 21.6223L1558.93 22.8902H1553.19H1545.36L1543.76 28.1385L1540.96 27.7082L1538.99 31.9848H1524.47L1515.59 32.0822L1507.82 32.9813L1498.64 23.7412Z" fill="#F79B0D"/>
</g>
<path opacity="0.2" fill-rule="evenodd" clip-rule="evenodd" d="M510.788 682.672C494.085 690.697 475.366 695.193 455.597 695.193C385.127 695.193 328 638.066 328 567.597C328 497.127 385.127 440 455.597 440C475.366 440 494.085 444.496 510.788 452.521C527.491 444.496 546.21 440 565.979 440C599.006 440 629.102 452.548 651.76 473.136C674.418 452.548 704.514 440 737.541 440C757.208 440 775.835 444.449 792.472 452.397C809.109 444.449 827.736 440 847.403 440C917.873 440 975 497.127 975 567.597C975 638.066 917.873 695.193 847.403 695.193C827.736 695.193 809.109 690.744 792.472 682.797C775.835 690.744 757.208 695.193 737.541 695.193C704.514 695.193 674.418 682.645 651.76 662.057C629.102 682.645 599.006 695.193 565.979 695.193C546.21 695.193 527.491 690.697 510.788 682.672Z" fill="white"/>
<path fill-rule="evenodd" clip-rule="evenodd" d="M257.38 768.612C235.036 780.967 209.339 788 182 788C95.8436 788 26 718.156 26 632C26 545.844 95.8436 476 182 476C209.469 476 235.279 483.1 257.697 495.564C276.195 487.357 296.671 482.797 318.211 482.797C356.871 482.797 392.101 497.485 418.624 521.585C445.147 497.485 480.377 482.797 519.037 482.797C542.059 482.797 563.864 488.005 583.338 497.308C602.813 488.005 624.617 482.797 647.639 482.797C730.129 482.797 797 549.668 797 632.158C797 714.649 730.129 781.52 647.639 781.52C624.617 781.52 602.813 776.312 583.338 767.009C563.864 776.312 542.059 781.52 519.037 781.52C480.377 781.52 445.147 766.832 418.624 742.732C392.101 766.832 356.871 781.52 318.211 781.52C296.547 781.52 275.961 776.908 257.38 768.612Z" fill="url(#paint0_linear_201_41)"/>
<path opacity="0.2" fill-rule="evenodd" clip-rule="evenodd" d="M190.755 684.056C162.436 700.456 128.16 706.776 93.6524 699.325C72.9962 694.865 54.4516 685.945 38.8105 673.791C19.5481 678.409 -1.02528 678.883 -21.6816 674.423C-95.3114 658.525 -142.112 585.949 -126.214 512.319C-110.317 438.689 -37.7399 391.888 35.8899 407.786C56.546 412.246 75.0907 421.167 90.7318 433.32C109.994 428.703 130.568 428.228 151.224 432.688C185.731 440.139 214.346 460.039 233.375 486.662C261.694 470.262 295.97 463.942 330.478 471.392C351.026 475.829 369.486 484.681 385.076 496.738C404.251 492.187 424.718 491.741 445.266 496.178C518.896 512.075 565.697 584.652 549.799 658.282C533.901 731.912 461.325 778.713 387.695 762.815C367.146 758.378 348.687 749.526 333.097 737.47C313.921 742.02 293.455 742.466 272.906 738.03C238.399 730.579 209.784 710.679 190.755 684.056Z" fill="white"/>
<g filter="url(#filter2_d_201_41)">
<path fill-rule="evenodd" clip-rule="evenodd" d="M-111.991 536.579C-108.792 536.158 -105.544 535.887 -102.254 535.773C-87.6303 499.642 -36.3257 470.045 16.148 466.714C48.0505 464.689 83.9394 477.973 96.327 484.372C121.145 461.196 154.538 447 191.265 447C267.886 447 330 508.785 330 585C330 653.389 277.242 723 211.949 723C146.657 723 -109.535 723 -109.535 723C-157.288 723 -196 681.26 -196 629.771C-196 629.658 -196 629.544 -195.999 629.431C-196 629.324 -196 629.217 -196 629.111C-196 625.297 -195.762 621.538 -195.299 617.844C-189.97 572.844 -154.886 537.869 -111.991 536.579Z" fill="url(#paint1_linear_201_41)" shape-rendering="crispEdges"/>
</g>
<g filter="url(#filter3_d_201_41)">
<path fill-rule="evenodd" clip-rule="evenodd" d="M1181.18 584.807C1184.96 584.31 1188.79 583.99 1192.68 583.855C1209.94 541.179 1270.51 506.22 1332.46 502.286C1370.13 499.894 1412.5 515.584 1427.12 523.142C1456.42 495.767 1495.85 479 1539.21 479C1629.67 479 1703 551.978 1703 642C1703 722.779 1640.71 805 1563.63 805C1486.54 805 1184.08 805 1184.08 805C1127.7 805 1082 755.698 1082 694.882C1082 694.748 1082 694.614 1082 694.48C1082 694.354 1082 694.228 1082 694.102C1082 689.598 1082.28 685.157 1082.83 680.794C1089.12 627.641 1130.54 586.331 1181.18 584.807Z" fill="url(#paint2_linear_201_41)" shape-rendering="crispEdges"/>
</g>
<path opacity="0.2" fill-rule="evenodd" clip-rule="evenodd" d="M1166.21 635.905C1178.64 641.875 1192.56 645.219 1207.27 645.219C1259.68 645.219 1302.17 602.728 1302.17 550.312C1302.17 497.896 1259.68 455.405 1207.27 455.405C1192.56 455.405 1178.64 458.749 1166.21 464.719C1153.79 458.75 1139.87 455.405 1125.16 455.405C1100.6 455.405 1078.21 464.738 1061.36 480.052C1044.51 464.738 1022.12 455.405 997.555 455.405C982.926 455.405 969.071 458.715 956.697 464.626C944.322 458.715 930.467 455.405 915.839 455.405C863.423 455.405 820.932 497.897 820.932 550.312C820.932 602.728 863.423 645.219 915.839 645.219C930.467 645.219 944.322 641.909 956.697 635.998C969.071 641.909 982.926 645.219 997.555 645.219C1022.12 645.219 1044.51 635.886 1061.36 620.572C1078.21 635.886 1100.6 645.219 1125.16 645.219C1139.87 645.219 1153.79 641.875 1166.21 635.905Z" fill="white"/>
<path fill-rule="evenodd" clip-rule="evenodd" d="M991.274 875.741C1018.62 883.784 1048.15 885.999 1078.17 881.166C1128.58 873.051 1171.44 846.503 1200.96 809.509C1240.61 835.368 1289.63 847.126 1340.04 839.011C1370.22 834.153 1397.69 822.691 1421.21 806.336C1448.68 814.482 1478.36 816.746 1508.53 811.888C1616.1 794.572 1689.26 693.335 1671.95 585.769C1654.63 478.203 1553.39 405.04 1445.83 422.356C1415.65 427.214 1388.18 438.676 1364.66 455.03C1337.19 446.884 1307.51 444.621 1277.34 449.479C1226.92 457.594 1184.07 484.142 1154.54 521.136C1114.9 495.277 1065.87 483.519 1015.46 491.634C985.442 496.467 958.102 507.836 934.66 524.054C907.313 516.011 877.786 513.797 847.766 518.629C740.2 535.945 667.037 637.182 684.353 744.748C701.669 852.314 802.905 925.477 910.472 908.161C940.492 903.329 967.832 891.96 991.274 875.741Z" fill="url(#paint3_linear_201_41)"/>
<path opacity="0.2" fill-rule="evenodd" clip-rule="evenodd" d="M1408.33 675.226C1442.54 692.07 1482.88 696.731 1522.41 685.364C1546.08 678.56 1566.94 666.736 1584.17 651.381C1606.92 655.238 1630.88 654.177 1654.54 647.373C1738.89 623.119 1787.61 535.079 1763.35 450.729C1739.1 366.379 1651.06 317.662 1566.71 341.916C1543.04 348.72 1522.18 360.544 1504.95 375.899C1482.2 372.042 1458.25 373.103 1434.58 379.907C1395.05 391.274 1363.34 416.652 1343.31 449.093C1309.1 432.249 1268.76 427.588 1229.23 438.955C1205.69 445.724 1184.92 457.461 1167.75 472.699C1145.1 468.912 1121.27 469.998 1097.73 476.766C1013.38 501.02 964.662 589.061 988.916 673.411C1013.17 757.76 1101.21 806.478 1185.56 782.224C1209.1 775.455 1229.87 763.718 1247.04 748.48C1269.69 752.266 1293.52 751.181 1317.06 744.412C1356.59 733.045 1388.3 707.668 1408.33 675.226Z" fill="white"/>
</g>
<defs>
<filter id="filter0_i_201_41" x="-37" y="0" width="1678" height="564" filterUnits="userSpaceOnUse" color-interpolation-filters="sRGB">
<feFlood flood-opacity="0" result="BackgroundImageFix"/>
<feBlend mode="normal" in="SourceGraphic" in2="BackgroundImageFix" result="shape"/>
<feColorMatrix in="SourceAlpha" type="matrix" values="0 0 0 0 0 0 0 0 0 0 0 0 0 0 0 0 0 0 127 0" result="hardAlpha"/>
<feOffset dy="2"/>
<feGaussianBlur stdDeviation="6"/>
<feComposite in2="hardAlpha" operator="arithmetic" k2="-1" k3="1"/>
<feColorMatrix type="matrix" values="0 0 0 0 0.298188 0 0 0 0 0.312384 0 0 0 0 0.268433 0 0 0 0.3 0"/>
<feBlend mode="multiply" in2="shape" result="effect1_innerShadow_201_41"/>
</filter>
<filter id="filter1_i_201_41" x="-70.9999" y="17.9648" width="1753" height="559.035" filterUnits="userSpaceOnUse" color-interpolation-filters="sRGB">
<feFlood flood-opacity="0" result="BackgroundImageFix"/>
<feBlend mode="normal" in="SourceGraphic" in2="BackgroundImageFix" result="shape"/>
<feColorMatrix in="SourceAlpha" type="matrix" values="0 0 0 0 0 0 0 0 0 0 0 0 0 0 0 0 0 0 127 0" result="hardAlpha"/>
<feOffset dy="2"/>
<feGaussianBlur stdDeviation="20"/>
<feComposite in2="hardAlpha" operator="arithmetic" k2="-1" k3="1"/>
<feColorMatrix type="matrix" values="0 0 0 0 0.187384 0 0 0 0 0.154742 0 0 0 0 0.113393 0 0 0 0.47 0"/>
<feBlend mode="multiply" in2="shape" result="effect1_innerShadow_201_41"/>
</filter>
<filter id="filter2_d_201_41" x="-227" y="388" width="588" height="338" filterUnits="userSpaceOnUse" color-interpolation-filters="sRGB">
<feFlood flood-opacity="0" result="BackgroundImageFix"/>
<feColorMatrix in="SourceAlpha" type="matrix" values="0 0 0 0 0 0 0 0 0 0 0 0 0 0 0 0 0 0 127 0" result="hardAlpha"/>
<feOffset dy="-28"/>
<feGaussianBlur stdDeviation="15.5"/>
<feComposite in2="hardAlpha" operator="out"/>
<feColorMatrix type="matrix" values="0 0 0 0 0.187384 0 0 0 0 0.154742 0 0 0 0 0.113393 0 0 0 0.03 0"/>
<feBlend mode="multiply" in2="BackgroundImageFix" result="effect1_dropShadow_201_41"/>
<feBlend mode="normal" in="SourceGraphic" in2="effect1_dropShadow_201_41" result="shape"/>
</filter>
<filter id="filter3_d_201_41" x="1051" y="420" width="683" height="388" filterUnits="userSpaceOnUse" color-interpolation-filters="sRGB">
<feFlood flood-opacity="0" result="BackgroundImageFix"/>
<feColorMatrix in="SourceAlpha" type="matrix" values="0 0 0 0 0 0 0 0 0 0 0 0 0 0 0 0 0 0 127 0" result="hardAlpha"/>
<feOffset dy="-28"/>
<feGaussianBlur stdDeviation="15.5"/>
<feComposite in2="hardAlpha" operator="out"/>
<feColorMatrix type="matrix" values="0 0 0 0 0.187384 0 0 0 0 0.154742 0 0 0 0 0.113393 0 0 0 0.03 0"/>
<feBlend mode="multiply" in2="BackgroundImageFix" result="effect1_dropShadow_201_41"/>
<feBlend mode="normal" in="SourceGraphic" in2="effect1_dropShadow_201_41" result="shape"/>
</filter>
<linearGradient id="paint0_linear_201_41" x1="395.5" y1="590.5" x2="381" y2="665.5" gradientUnits="userSpaceOnUse">
<stop stop-color="white"/>
<stop offset="1" stop-color="white" stop-opacity="0"/>
</linearGradient>
<linearGradient id="paint1_linear_201_41" x1="139.5" y1="613.5" x2="139.5" y2="669" gradientUnits="userSpaceOnUse">
<stop stop-color="#FFFEFD"/>
<stop offset="1" stop-color="#FFFEFD" stop-opacity="0"/>
</linearGradient>
<linearGradient id="paint2_linear_201_41" x1="1478.09" y1="675.663" x2="1478.09" y2="741.217" gradientUnits="userSpaceOnUse">
<stop stop-color="#FFFEFD"/>
<stop offset="1" stop-color="#FFFEFD" stop-opacity="0"/>
</linearGradient>
<linearGradient id="paint3_linear_201_41" x1="1189.02" y1="577.691" x2="1233.58" y2="827.334" gradientUnits="userSpaceOnUse">
<stop stop-color="white"/>
<stop offset="1" stop-color="white" stop-opacity="0"/>
</linearGradient>
<clipPath id="clip0_201_41">
<rect width="1629" height="940" fill="white"/>
</clipPath>
</defs>
</svg>
