<svg width="431" height="242" viewBox="0 0 431 242" fill="none" xmlns="http://www.w3.org/2000/svg">
<path fill-rule="evenodd" clip-rule="evenodd" d="M351.472 78.5438C348.444 78.1752 345.369 77.9374 342.254 77.8369C328.411 46.1575 296.767 24.0153 259.944 24.0153C246.073 24.0153 232.936 27.1575 221.209 32.7681C197.715 12.4469 166.103 0 131.335 0C58.8006 0 0 54.1735 0 121C0 180.965 49.9442 242 111.754 242C173.564 242 349.147 242 349.147 242C394.353 242 431 205.402 431 160.256C431 160.156 431 160.057 430.999 159.958C431 159.864 431 159.77 431 159.677C431 156.333 430.775 153.037 430.336 149.798C425.291 110.341 392.079 79.6748 351.472 78.5438Z" fill="#FFF7E7"/>
</svg>
