<svg width="238" height="51" viewBox="0 0 238 51" fill="none" xmlns="http://www.w3.org/2000/svg">
<path fill-rule="evenodd" clip-rule="evenodd" d="M188.091 1.22493C162.184 2.92314 143.872 5.27006 118.463 10.1484C97.5633 14.1611 83.7307 17.2982 60.1412 23.3753C46.2699 26.9487 40.8454 28.5624 29.8498 32.3858C21.1897 35.3972 15.7738 37.1745 10.6379 38.6902C2.99422 40.9461 0.308471 41.9589 0.332671 42.5765C0.34333 42.8486 0.603128 42.9047 0.815822 42.6809C1.00029 42.4869 2.03935 42.1641 8.42627 40.3169C13.7731 38.7704 17.7173 37.5407 25.648 34.9474C43.4399 29.1298 45.0909 28.6769 72.7744 22.0224C112.026 12.5872 143.988 7.1424 174.771 4.64721C204.003 2.2777 228.133 1.83278 234.395 3.54757C235.43 3.83084 235.434 3.80289 234.29 4.37147C231.629 5.69492 225.612 7.33747 213.7 9.99245C200.096 13.0244 192.707 14.4737 170.547 18.4578C153.672 21.4916 153.267 21.5721 131.01 26.3164C107.697 31.286 97.4364 33.6354 83.517 37.1918C78.6016 38.4475 78.1874 38.5436 72.1274 39.8318C60.0691 42.3953 49.7329 45.075 39.6057 48.2631C36.3086 49.3011 35.7235 49.7336 36.6248 50.4663C37.3504 51.0563 43.1305 49.7675 57.4468 45.824C75.1156 40.9569 77.6065 40.3517 87.8022 38.4465C102.419 35.7152 114.619 33.8377 124.842 32.7465C135.085 31.653 152.224 30.1001 161.512 29.424C166.699 29.0462 186.811 28.121 187.82 28.2138L188.604 28.2858L187.883 28.4851C186.629 28.8325 164.356 33.9458 154.56 36.1353C151.493 36.8208 147.063 37.7817 144.716 38.2705C137.065 39.8641 120.66 43.5378 117.772 44.3044C115.968 44.7833 115.362 45.637 116.256 46.441C116.866 46.9885 120.804 46.8836 129.336 46.0927C131.367 45.9045 135.107 45.5788 137.647 45.3692C140.187 45.1596 143.981 44.7776 146.078 44.5204C148.174 44.2631 151.318 43.9344 153.065 43.79C154.811 43.6456 157.011 43.4519 157.954 43.3596L159.668 43.1917L158.148 43.2312C156.157 43.2828 151.467 43.2596 147.49 43.1784C142.825 43.0832 132.635 43.5452 127.934 44.0651C127.402 44.1238 127.214 44.1103 127.359 44.0239C127.642 43.8553 139.566 41.1991 145.183 40.0536C162.156 36.5921 191.143 29.8955 192.577 29.1045C193.85 28.4027 193.708 27.2677 192.282 26.7524C189.728 25.829 166.539 26.9281 145.807 28.9552C144.03 29.1289 139.876 29.5238 136.575 29.8328C124.163 30.9946 111.976 32.4457 107.391 33.3083C107.102 33.3627 106.898 33.3708 106.938 33.3265C107.099 33.1476 139.068 26.3357 151.476 23.8366C154.281 23.2713 162.413 21.7661 169.546 20.4913C194.338 16.0608 200.059 14.944 215.021 11.6132C233.495 7.50034 238.484 5.60952 237.326 3.15964C236.361 1.11985 231.262 0.373171 217.155 0.205954C213.78 0.165916 193.284 0.884457 188.091 1.22493Z" fill="#FCC14A"/>
</svg>
