<svg width="521" height="56" viewBox="0 0 521 56" fill="none" xmlns="http://www.w3.org/2000/svg">
<g filter="url(#filter0_d_333_1171)">
<path d="M118.125 17.9277L456.987 17.9277V29.8016L118.125 29.8016V17.9277Z" fill="black"/>
<path d="M14 23.04H22.2204V24.8668H14V23.04Z" fill="black"/>
<path d="M490.781 14.2744L506.308 14.2744V33.4553H490.781V14.2744Z" fill="#C4C4C4"/>
<path d="M492.608 12.8784C492.608 12.1354 491.995 11.5332 491.238 11.5332L468.86 11.5332V14.6719L456.073 14.6719V33.0556H468.86V36.1943H491.238C491.995 36.1943 492.608 35.5921 492.608 34.8492V12.8784Z" fill="#333333"/>
<path d="M105.335 11.967C105.335 11.2231 105.949 10.6201 106.706 10.6201L120.406 10.6201C121.163 10.6201 121.776 11.2231 121.776 11.967V35.7611C121.776 36.505 121.163 37.108 120.406 37.108H106.706C105.949 37.108 105.335 36.505 105.335 35.7611V11.967Z" fill="#333333"/>
<path d="M66.061 13.3606C66.061 12.8562 66.47 12.4473 66.9744 12.4473L103.509 12.4473C104.014 12.4473 104.423 12.8562 104.423 13.3606V34.3682C104.423 34.8727 104.014 35.2816 103.509 35.2816H66.9744C66.47 35.2816 66.061 34.8727 66.061 34.3682V13.3606Z" fill="#333333"/>
<path d="M27.0822 26.6253H20.4093C19.3904 26.6253 18.5645 25.8014 18.5645 24.7854V22.9455C18.5645 21.9294 19.3904 21.1056 20.4093 21.1056H27.0822C27.9285 19.4876 29.5004 18.2911 31.4093 17.9738L64.6141 12.4545C64.8928 12.4083 65.1465 12.6225 65.1465 12.9044V34.8264C65.1465 35.1083 64.8928 35.3226 64.6141 35.2763L31.4093 29.757C29.5004 29.4397 27.9285 28.2433 27.0822 26.6253Z" fill="#333333"/>
<path fill-rule="evenodd" clip-rule="evenodd" d="M454.236 11.9995L123.614 11.9995C122.853 11.9995 122.237 12.6245 122.237 13.3954V34.3341C122.237 35.105 122.853 35.73 123.614 35.73L454.236 35.73C454.996 35.73 455.613 35.105 455.613 34.3341V13.3954C455.613 12.6245 454.996 11.9995 454.236 11.9995ZM123.614 11.5342C122.6 11.5342 121.777 12.3675 121.777 13.3954V34.3341C121.777 35.362 122.6 36.1953 123.614 36.1953L454.236 36.1953C455.25 36.1953 456.072 35.362 456.072 34.3341V13.3954C456.072 12.3675 455.25 11.5342 454.236 11.5342L123.614 11.5342Z" fill="#C4C4C4"/>
<path fill-rule="evenodd" clip-rule="evenodd" d="M123.614 11.5342C122.6 11.5342 121.777 12.3675 121.777 13.3954V34.3341C121.777 35.362 122.6 36.1953 123.614 36.1953L454.236 36.1953C455.25 36.1953 456.072 35.362 456.072 34.3341V13.3954C456.072 12.3675 455.25 11.5342 454.236 11.5342L123.614 11.5342Z" fill="url(#paint0_linear_333_1171)"/>
<path d="M303.539 18.289C303.539 16.0718 305.386 14.2744 307.665 14.2744L413.584 14.2744C415.863 14.2744 417.71 16.0718 417.71 18.289V29.4407C417.71 31.6579 415.863 33.4553 413.584 33.4553H307.665C305.386 33.4553 303.539 31.6579 303.539 29.4407V18.289Z" fill="#F7941D"/>
<path d="M340.137 21.2143C340.792 21.1275 341.265 20.6134 341.194 20.0655C341.124 19.5176 340.537 19.1442 339.883 19.2309C339.228 19.3176 338.755 19.8317 338.825 20.3797C338.895 20.9276 339.482 21.301 340.137 21.2143Z" fill="black"/>
<path d="M334.389 27.8615H338.228L340.539 21.3962H338.179L334.389 27.8615Z" fill="black"/>
<path d="M348.811 23.1987H350.487L353.773 19.5948H350.389L350.048 20.2231C350.048 20.2231 349.446 19.3145 347.299 19.3134C345.152 19.3134 342.028 20.5532 341.28 23.3976C340.531 26.241 342.516 27.9938 345.086 27.9938C347.657 27.9938 349.186 27.2332 350.455 25.7787L349.462 24.8193C349.462 24.8193 348.063 27.0015 345.444 26.3732C344.318 26.1035 344.338 23.7615 345.802 22.2065C347.267 20.6526 348.259 20.8345 348.6 21.0324C348.941 21.2312 349.56 21.6279 348.811 23.1987Z" fill="black"/>
<path fill-rule="evenodd" clip-rule="evenodd" d="M330.933 27.8615H322.863L326.978 19.5123H334.17C334.983 19.5123 336.057 20.0084 336.057 21.0165C336.057 23.1987 333.178 23.5626 333.178 23.5626C333.617 23.7276 334.382 24.3888 334.284 25.216C334.055 27.1486 331.843 27.8615 330.933 27.8615ZM329.012 22.5534H331.046C331.436 22.5534 332.592 22.2065 332.624 21.5284C332.656 20.8504 332.022 20.8176 331.795 20.8176H330.168L329.012 22.5534ZM326.409 26.3404H328.866C329.224 26.3404 330.411 25.7787 330.574 25.034C330.736 24.2904 330.379 23.9921 329.988 23.9921H327.938L326.409 26.3404Z" fill="black"/>
<path fill-rule="evenodd" clip-rule="evenodd" d="M323.483 30.706C320.064 30.706 319.245 28.4021 320.6 24.8679C321.639 22.1568 322.624 20.331 324.333 18.7676C326.252 17.0122 327.329 17.013 328.349 17.0137L352.814 17.0137C354.189 17.0137 355.53 17.952 355.597 19.342C355.663 20.7319 354.912 26.1172 351.138 29.2462C349.32 30.7542 348.077 30.7287 347.161 30.7099C347.064 30.7079 346.971 30.706 346.881 30.706H323.483ZM324.185 30.0522C320.404 30.0522 320.155 27.9684 321.443 24.7717C322.432 22.3197 323.324 20.6536 324.95 19.2394C326.759 17.6657 327.198 17.6661 328.734 17.6674C328.778 17.6674 328.824 17.6675 328.871 17.6675H352.184C354.01 17.6675 354.83 18.317 354.83 19.7735C354.83 21.0323 354.178 25.9014 350.589 28.7321C348.873 30.0853 348.057 30.073 346.939 30.0562C346.811 30.0542 346.678 30.0522 346.54 30.0522H324.185Z" fill="black"/>
</g>
<defs>
<filter id="filter0_d_333_1171" x="0" y="0.620117" width="520.308" height="54.4878" filterUnits="userSpaceOnUse" color-interpolation-filters="sRGB">
<feFlood flood-opacity="0" result="BackgroundImageFix"/>
<feColorMatrix in="SourceAlpha" type="matrix" values="0 0 0 0 0 0 0 0 0 0 0 0 0 0 0 0 0 0 127 0" result="hardAlpha"/>
<feOffset dy="4"/>
<feGaussianBlur stdDeviation="7"/>
<feComposite in2="hardAlpha" operator="out"/>
<feColorMatrix type="matrix" values="0 0 0 0 0.383232 0 0 0 0 0.370683 0 0 0 0 0.351313 0 0 0 0.59 0"/>
<feBlend mode="multiply" in2="BackgroundImageFix" result="effect1_dropShadow_333_1171"/>
<feBlend mode="normal" in="SourceGraphic" in2="effect1_dropShadow_333_1171" result="shape"/>
</filter>
<linearGradient id="paint0_linear_333_1171" x1="125" y1="7.5" x2="135.061" y2="98.993" gradientUnits="userSpaceOnUse">
<stop stop-color="white" stop-opacity="0.28"/>
<stop offset="0.0001" stop-color="#FFFDF0"/>
<stop offset="1" stop-color="#FFFEE2" stop-opacity="0"/>
</linearGradient>
</defs>
</svg>
