<svg width="493" height="28" viewBox="0 0 493 28" fill="none" xmlns="http://www.w3.org/2000/svg">
<path d="M104.125 7.92773H442.987V19.8016H104.125V7.92773Z" fill="black"/>
<path d="M0 13.04H8.22037V14.8668H0V13.04Z" fill="black"/>
<path d="M476.781 4.27441H492.308V23.4553H476.781V4.27441Z" fill="#C4C4C4"/>
<path d="M478.608 2.87835C478.608 2.13545 477.995 1.5332 477.238 1.5332H454.86V4.67189H442.073V23.0556H454.86V26.1943H477.238C477.995 26.1943 478.608 25.5921 478.608 24.8492V2.87835Z" fill="#333333"/>
<path d="M91.3354 1.96696C91.3354 1.22312 91.9488 0.620117 92.7055 0.620117H106.406C107.163 0.620117 107.776 1.22312 107.776 1.96696V25.7611C107.776 26.505 107.163 27.108 106.406 27.108H92.7055C91.9488 27.108 91.3354 26.505 91.3354 25.7611V1.96696Z" fill="#333333"/>
<path d="M52.061 3.36064C52.061 2.8562 52.47 2.44727 52.9744 2.44727H89.5094C90.0138 2.44727 90.4228 2.8562 90.4228 3.36064V24.3682C90.4228 24.8727 90.0138 25.2816 89.5094 25.2816H52.9744C52.47 25.2816 52.061 24.8727 52.061 24.3682V3.36064Z" fill="#333333"/>
<path d="M13.0822 16.6253H6.40929C5.3904 16.6253 4.56445 15.8014 4.56445 14.7854V12.9455C4.56445 11.9294 5.3904 11.1056 6.40929 11.1056H13.0822C13.9285 9.48758 15.5004 8.29115 17.4093 7.97379L50.6141 2.45455C50.8928 2.40828 51.1465 2.62255 51.1465 2.90441V24.8264C51.1465 25.1083 50.8928 25.3226 50.6141 25.2763L17.4093 19.757C15.5004 19.4397 13.9285 18.2433 13.0822 16.6253Z" fill="#333333"/>
<path fill-rule="evenodd" clip-rule="evenodd" d="M440.236 1.99948H109.614C108.853 1.99948 108.237 2.62445 108.237 3.3954V24.3341C108.237 25.105 108.853 25.73 109.614 25.73H440.236C440.996 25.73 441.613 25.105 441.613 24.3341V3.3954C441.613 2.62445 440.996 1.99948 440.236 1.99948ZM109.614 1.53418C108.6 1.53418 107.777 2.36747 107.777 3.3954V24.3341C107.777 25.362 108.6 26.1953 109.614 26.1953H440.236C441.25 26.1953 442.072 25.362 442.072 24.3341V3.3954C442.072 2.36747 441.25 1.53418 440.236 1.53418H109.614Z" fill="#C4C4C4"/>
<path fill-rule="evenodd" clip-rule="evenodd" d="M109.614 1.53418C108.6 1.53418 107.777 2.36747 107.777 3.3954V24.3341C107.777 25.362 108.6 26.1953 109.614 26.1953H440.236C441.25 26.1953 442.072 25.362 442.072 24.3341V3.3954C442.072 2.36747 441.25 1.53418 440.236 1.53418H109.614Z" fill="url(#paint0_linear_127_1196)"/>
<path d="M289.539 8.28901C289.539 6.07181 291.386 4.27441 293.665 4.27441H399.584C401.863 4.27441 403.71 6.07181 403.71 8.28901V19.4407C403.71 21.6579 401.863 23.4553 399.584 23.4553H293.665C291.386 23.4553 289.539 21.6579 289.539 19.4407V8.28901Z" fill="#F7941D"/>
<path d="M326.137 11.2143C326.792 11.1275 327.265 10.6134 327.194 10.0655C327.124 9.51756 326.537 9.14415 325.883 9.23089C325.228 9.31763 324.755 9.83172 324.825 10.3797C324.895 10.9276 325.482 11.301 326.137 11.2143Z" fill="black"/>
<path d="M320.389 17.8615H324.228L326.539 11.3962H324.179L320.389 17.8615Z" fill="black"/>
<path d="M334.811 13.1987H336.487L339.773 9.59479H336.389L336.048 10.2231C336.048 10.2231 335.446 9.31447 333.299 9.31342C331.152 9.31342 328.028 10.5532 327.28 13.3976C326.531 16.241 328.516 17.9938 331.086 17.9938C333.657 17.9938 335.186 17.2332 336.455 15.7787L335.462 14.8193C335.462 14.8193 334.063 17.0015 331.444 16.3732C330.318 16.1035 330.338 13.7615 331.802 12.2065C333.267 10.6526 334.259 10.8345 334.6 11.0324C334.941 11.2312 335.56 11.6279 334.811 13.1987Z" fill="black"/>
<path fill-rule="evenodd" clip-rule="evenodd" d="M316.933 17.8615H308.863L312.978 9.51227H320.17C320.983 9.51227 322.057 10.0084 322.057 11.0165C322.057 13.1987 319.178 13.5626 319.178 13.5626C319.617 13.7276 320.382 14.3888 320.284 15.216C320.055 17.1486 317.843 17.8615 316.933 17.8615ZM315.012 12.5534H317.046C317.436 12.5534 318.592 12.2065 318.624 11.5284C318.656 10.8504 318.022 10.8176 317.795 10.8176H316.168L315.012 12.5534ZM312.409 16.3404H314.866C315.224 16.3404 316.411 15.7787 316.574 15.034C316.736 14.2904 316.379 13.9921 315.988 13.9921H313.938L312.409 16.3404Z" fill="black"/>
<path fill-rule="evenodd" clip-rule="evenodd" d="M309.483 20.706C306.064 20.706 305.245 18.4021 306.6 14.8679C307.639 12.1568 308.624 10.331 310.333 8.76757C312.252 7.01222 313.329 7.01298 314.349 7.0137L338.814 7.01373C340.189 7.01373 341.53 7.952 341.597 9.34196C341.663 10.7319 340.912 16.1172 337.138 19.2462C335.32 20.7542 334.077 20.7287 333.161 20.7099C333.064 20.7079 332.971 20.706 332.881 20.706H309.483ZM310.185 20.0522C306.404 20.0522 306.155 17.9684 307.443 14.7717C308.432 12.3197 309.324 10.6536 310.95 9.23935C312.759 7.66573 313.198 7.6661 314.734 7.66738C314.778 7.66742 314.824 7.66746 314.871 7.66746L338.184 7.66746C340.01 7.66746 340.83 8.31695 340.83 9.77355C340.83 11.0323 340.178 15.9014 336.589 18.7321C334.873 20.0853 334.057 20.073 332.939 20.0562C332.811 20.0542 332.678 20.0522 332.54 20.0522H310.185Z" fill="black"/>
<defs>
<linearGradient id="paint0_linear_127_1196" x1="233.128" y1="20.1702" x2="248.744" y2="110.091" gradientUnits="userSpaceOnUse">
<stop stop-color="#FDF5E0" stop-opacity="0.28"/>
<stop offset="1" stop-color="#FFFCF5" stop-opacity="0"/>
</linearGradient>
</defs>
</svg>
