<svg width="37" height="75" viewBox="0 0 37 75" fill="none" xmlns="http://www.w3.org/2000/svg">
<path d="M35.96 57.0947C36.5964 56.5644 36.6824 55.6185 36.1521 54.9821C35.6217 54.3457 34.6759 54.2597 34.0395 54.7901L35.96 57.0947ZM13.7516 71.6966C13.1152 72.2269 13.0292 73.1728 13.5596 73.8092C14.0899 74.4456 15.0358 74.5316 15.6722 74.0012L13.7516 71.6966ZM34.0395 54.7901L13.7516 71.6966L15.6722 74.0012L35.96 57.0947L34.0395 54.7901Z" fill="#FFDC99"/>
<path d="M32.5522 17.2614C33.2524 17.7042 34.179 17.4954 34.6217 16.7952C35.0644 16.095 34.8557 15.1685 34.1555 14.7258L32.5522 17.2614ZM12.0233 0.732165C11.3231 0.289443 10.3966 0.498175 9.95383 1.19838C9.51111 1.89859 9.71984 2.82511 10.42 3.26784L12.0233 0.732165ZM34.1555 14.7258L12.0233 0.732165L10.42 3.26784L32.5522 17.2614L34.1555 14.7258Z" fill="#FFDC99"/>
<path d="M26.9125 26.2391L14.2528 22.4815" stroke="#606060" stroke-width="3" stroke-linecap="round"/>
<path d="M27.4043 47.5334L13.8593 53.0467" stroke="#606060" stroke-width="3" stroke-linecap="round"/>
<path d="M26.5738 38.9714C27.4022 38.9714 28.0738 38.2998 28.0738 37.4714C28.0738 36.6429 27.4022 35.9714 26.5738 35.9714L26.5738 38.9714ZM2.00036 35.9714C1.17194 35.9714 0.500366 36.643 0.500367 37.4714C0.500369 38.2998 1.17194 38.9714 2.00037 38.9714L2.00036 35.9714ZM26.5738 35.9714L2.00036 35.9714L2.00037 38.9714L26.5738 38.9714L26.5738 35.9714Z" fill="#FFDC99"/>
</svg>
