<svg width="33" height="36" viewBox="0 0 33 36" fill="none" xmlns="http://www.w3.org/2000/svg">
<path d="M27.5 25.4458C26.1067 25.4458 24.86 25.988 23.9067 26.8374L10.835 19.3373C10.9267 18.9217 11 18.506 11 18.0723C11 17.6386 10.9267 17.2229 10.835 16.8072L23.76 9.37952C24.75 10.2831 26.0517 10.8434 27.5 10.8434C30.5433 10.8434 33 8.42169 33 5.42169C33 2.42169 30.5433 0 27.5 0C24.4567 0 22 2.42169 22 5.42169C22 5.85542 22.0733 6.27108 22.165 6.68675L9.24 14.1145C8.25 13.2108 6.94833 12.6506 5.5 12.6506C2.45667 12.6506 0 15.0723 0 18.0723C0 21.0723 2.45667 23.494 5.5 23.494C6.94833 23.494 8.25 22.9337 9.24 22.0301L22.2933 29.5482C22.2017 29.9277 22.1467 30.3253 22.1467 30.7229C22.1467 33.6325 24.5483 36 27.5 36C30.4517 36 32.8533 33.6325 32.8533 30.7229C32.8533 27.8133 30.4517 25.4458 27.5 25.4458Z" fill="white"/>
</svg>
