<svg width="700" height="700" viewBox="0 0 700 700" fill="none" xmlns="http://www.w3.org/2000/svg">
<path d="M699.035 349.517C699.035 542.551 542.551 699.035 349.517 699.035C156.484 699.035 0 542.551 0 349.517C0 156.484 156.484 0 349.517 0C542.551 0 699.035 156.484 699.035 349.517Z" fill="#FFF7D1"/>
<g filter="url(#filter0_d_514_6)">
<path d="M557.223 349.401C557.223 463.71 464.557 556.376 350.247 556.376C235.937 556.376 143.271 463.71 143.271 349.401C143.271 235.091 235.937 142.425 350.247 142.425C464.557 142.425 557.223 235.091 557.223 349.401Z" fill="#FFD842"/>
</g>
<g filter="url(#filter1_d_514_6)">
<path d="M504.418 349.503C504.418 434.938 435.159 504.197 349.724 504.197C264.289 504.197 195.03 434.938 195.03 349.503C195.03 264.068 264.289 194.81 349.724 194.81C435.159 194.81 504.418 264.068 504.418 349.503Z" fill="#FFB241"/>
</g>
<g filter="url(#filter2_d_514_6)">
<path d="M479.506 349.242C479.506 420.575 421.679 478.401 350.347 478.401C279.014 478.401 221.188 420.575 221.188 349.242C221.188 277.91 279.014 220.083 350.347 220.083C421.679 220.083 479.506 277.91 479.506 349.242Z" fill="#FF7E1D"/>
</g>
<path opacity="0.2" d="M253.385 297.922C259.242 286.271 273.434 281.574 285.085 287.43V287.43C296.736 293.287 301.433 307.479 295.577 319.13L294.605 321.063C288.749 332.714 274.556 337.412 262.905 331.555V331.555C251.254 325.698 246.557 311.506 252.413 299.855L253.385 297.922Z" fill="white"/>
<path d="M352.875 414.443C335.368 411.378 319.84 401.745 308.916 387.183C305.855 382.293 307.837 381.347 311.544 386.195C314.51 390.074 322.242 396.794 325.737 399.669C330.441 403.108 334.244 405.231 339.71 407.478C349.408 411.464 358.75 412.966 368.983 412.224C376.321 411.669 382.52 410.182 389.531 407.267C398.77 403.411 406.282 398.108 412.837 390.81C417.684 385.405 421.942 378.396 424.278 371.974C425.068 369.817 426.135 366.365 426.312 365.428C426.389 365.044 427.325 361.292 428.689 361.198C430.154 361.097 429.574 362.512 429.293 365.693C429.317 365.751 429.157 366.454 428.945 367.28C425.823 378.966 419.02 389.909 409.681 398.176C394.235 411.875 373.019 417.95 352.875 414.443Z" fill="black"/>
<path d="M384.026 311.065C379.53 312.45 376.119 316.231 374.911 321.126C374.331 323.508 374.341 324.458 374.955 327.522C375.459 330.034 375.54 330.289 376.163 331.434C377.366 333.669 378.756 335.249 380.761 336.659C382.789 338.11 385.29 338.983 387.846 339.15C389.624 339.277 392.528 338.695 394.163 337.883C403.054 333.487 404.712 321.115 397.342 314.195C396.429 313.336 394.343 311.972 393.254 311.51C390.366 310.292 387.043 310.143 384.026 311.065Z" fill="black"/>
<path d="M328.046 323.94C319.133 327.48 316.381 339.134 322.676 346.723C327.736 352.823 336.41 353.515 342.201 348.275C344.199 346.485 346.032 343.126 346.501 340.419C347.144 336.695 346.34 332.687 344.314 329.513C342.552 326.755 339.345 324.393 336.196 323.529C334.36 323.036 332.716 322.973 330.598 323.337C329.564 323.53 328.409 323.792 328.046 323.94Z" fill="black"/>
<defs>
<filter id="filter0_d_514_6" x="137.271" y="139.425" width="425.952" height="425.952" filterUnits="userSpaceOnUse" color-interpolation-filters="sRGB">
<feFlood flood-opacity="0" result="BackgroundImageFix"/>
<feColorMatrix in="SourceAlpha" type="matrix" values="0 0 0 0 0 0 0 0 0 0 0 0 0 0 0 0 0 0 127 0" result="hardAlpha"/>
<feOffset dy="3"/>
<feGaussianBlur stdDeviation="3"/>
<feComposite in2="hardAlpha" operator="out"/>
<feColorMatrix type="matrix" values="0 0 0 0 0.245718 0 0 0 0 0.224187 0 0 0 0 0.171217 0 0 0 0.6 0"/>
<feBlend mode="multiply" in2="BackgroundImageFix" result="effect1_dropShadow_514_6"/>
<feBlend mode="normal" in="SourceGraphic" in2="effect1_dropShadow_514_6" result="shape"/>
</filter>
<filter id="filter1_d_514_6" x="187.03" y="190.81" width="325.387" height="325.387" filterUnits="userSpaceOnUse" color-interpolation-filters="sRGB">
<feFlood flood-opacity="0" result="BackgroundImageFix"/>
<feColorMatrix in="SourceAlpha" type="matrix" values="0 0 0 0 0 0 0 0 0 0 0 0 0 0 0 0 0 0 127 0" result="hardAlpha"/>
<feOffset dy="4"/>
<feGaussianBlur stdDeviation="4"/>
<feComposite in2="hardAlpha" operator="out"/>
<feColorMatrix type="matrix" values="0 0 0 0 0.245718 0 0 0 0 0.224187 0 0 0 0 0.171217 0 0 0 0.46 0"/>
<feBlend mode="multiply" in2="BackgroundImageFix" result="effect1_dropShadow_514_6"/>
<feBlend mode="normal" in="SourceGraphic" in2="effect1_dropShadow_514_6" result="shape"/>
</filter>
<filter id="filter2_d_514_6" x="215.188" y="217.083" width="270.318" height="270.318" filterUnits="userSpaceOnUse" color-interpolation-filters="sRGB">
<feFlood flood-opacity="0" result="BackgroundImageFix"/>
<feColorMatrix in="SourceAlpha" type="matrix" values="0 0 0 0 0 0 0 0 0 0 0 0 0 0 0 0 0 0 127 0" result="hardAlpha"/>
<feOffset dy="3"/>
<feGaussianBlur stdDeviation="3"/>
<feComposite in2="hardAlpha" operator="out"/>
<feColorMatrix type="matrix" values="0 0 0 0 0.245718 0 0 0 0 0.224187 0 0 0 0 0.171217 0 0 0 0.6 0"/>
<feBlend mode="multiply" in2="BackgroundImageFix" result="effect1_dropShadow_514_6"/>
<feBlend mode="normal" in="SourceGraphic" in2="effect1_dropShadow_514_6" result="shape"/>
</filter>
</defs>
</svg>
